<mxfile host="Electron" modified="2024-01-26T11:44:08.505Z" agent="Mozilla/5.0 (Macintosh; Intel Mac OS X 10_15_7) AppleWebKit/537.36 (KHTML, like Gecko) draw.io/22.1.21 Chrome/120.0.6099.109 Electron/28.1.0 Safari/537.36" etag="DOIU0y0uO6qAOrkT1aWF" version="22.1.21" type="device" pages="3">
  <diagram id="i0jId6mtgXLA8WQE5xhP" name="Nur Gleisplan">
    <mxGraphModel dx="559" dy="374" grid="1" gridSize="10" guides="1" tooltips="1" connect="1" arrows="1" fold="1" page="0" pageScale="1" pageWidth="827" pageHeight="1169" math="0" shadow="0">
      <root>
        <mxCell id="0" />
        <mxCell id="1" parent="0" />
        <mxCell id="9h3KFrInGehkcryOf0Qv-1" style="vsdxID=5;edgeStyle=none;startArrow=none;endArrow=none;startSize=5;endSize=5;strokeWidth=2;strokeColor=#000000;spacingTop=0;spacingBottom=0;spacingLeft=0;spacingRight=0;verticalAlign=middle;html=1;labelBackgroundColor=none;rounded=0;exitX=1.028;exitY=0.014;exitDx=0;exitDy=0;exitPerimeter=0;" parent="1" source="9h3KFrInGehkcryOf0Qv-2" edge="1">
          <mxGeometry y="-1118" relative="1" as="geometry">
            <mxPoint y="-1118" as="offset" />
            <Array as="points">
              <mxPoint x="300" y="380" />
              <mxPoint x="540" y="380" />
            </Array>
            <mxPoint x="270" y="388" as="sourcePoint" />
            <mxPoint x="560" y="400" as="targetPoint" />
          </mxGeometry>
        </mxCell>
        <mxCell id="9h3KFrInGehkcryOf0Qv-2" style="vsdxID=5;fillColor=none;gradientColor=none;strokeColor=none;points=[];labelBackgroundColor=none;rounded=0;html=1;whiteSpace=wrap;rotation=-180;" parent="1" vertex="1">
          <mxGeometry x="280" y="388" width="12" height="12" as="geometry" />
        </mxCell>
        <mxCell id="9h3KFrInGehkcryOf0Qv-3" style="vsdxID=6;rotation=90;fillColor=#000000;gradientColor=none;shape=stencil(jZBLDoAgDERP0z3SIyjew0SURgSD+Lu9kMb4Wbmb6bw2bQHL2TSTBinmGPygN2qjAaxASnJGB4pJASrAsvNB98EvrmU/NZnMavRrnrBzn8gdUhzsCsG+ZtSSe6BX+At+o7/Bz8wk7sU7spbvfubfQ1OJn4TqBA==);strokeColor=#000000;flipH=1;flipV=1;points=[];labelBackgroundColor=none;rounded=0;html=1;whiteSpace=wrap;" parent="9h3KFrInGehkcryOf0Qv-2" vertex="1">
          <mxGeometry y="4" width="8" height="8" as="geometry" />
        </mxCell>
        <mxCell id="9h3KFrInGehkcryOf0Qv-4" value="" style="vsdxID=7;edgeStyle=none;startArrow=none;endArrow=none;startSize=5;endSize=5;strokeColor=#000000;spacingTop=0;spacingBottom=0;spacingLeft=0;spacingRight=0;verticalAlign=middle;html=1;labelBackgroundColor=none;rounded=0;" parent="9h3KFrInGehkcryOf0Qv-2" edge="1">
          <mxGeometry relative="1" as="geometry">
            <Array as="points" />
            <mxPoint x="12" y="12" as="sourcePoint" />
            <mxPoint x="12" as="targetPoint" />
          </mxGeometry>
        </mxCell>
        <UserObject label="" Row_1="" id="9h3KFrInGehkcryOf0Qv-5">
          <mxCell style="vsdxID=18;fillColor=none;gradientColor=none;strokeColor=none;points=[];labelBackgroundColor=none;rounded=0;html=1;whiteSpace=wrap;" parent="1" vertex="1">
            <mxGeometry x="180" y="401" width="90" height="12" as="geometry" />
          </mxCell>
        </UserObject>
        <mxCell id="9h3KFrInGehkcryOf0Qv-6" value="&lt;div style=&quot;font-size: 1px&quot;&gt;&lt;p style=&quot;text-align:right;margin-left:0;margin-right:0;margin-top:0px;margin-bottom:0px;text-indent:0;vertical-align:middle;direction:ltr;&quot;&gt;&lt;font style=&quot;font-size:11.29px;font-family:Arial;color:#000000;direction:ltr;letter-spacing:0px;line-height:120%;opacity:1&quot;&gt;&lt;br/&gt;&lt;/font&gt;&lt;/p&gt;&lt;/div&gt;" style="verticalAlign=middle;align=right;overflow=width;vsdxID=12;fillColor=none;gradientColor=none;strokeColor=none;spacingTop=-3;spacingBottom=-3;spacingLeft=-3;spacingRight=-1;points=[];labelBackgroundColor=none;rounded=0;html=1;whiteSpace=wrap;" parent="9h3KFrInGehkcryOf0Qv-5" vertex="1">
          <mxGeometry x="35" width="28" height="12" as="geometry" />
        </mxCell>
        <mxCell id="9h3KFrInGehkcryOf0Qv-7" value="&lt;div style=&quot;font-size: 1px&quot;&gt;&lt;p style=&quot;text-align:right;margin-left:0;margin-right:0;margin-top:0px;margin-bottom:0px;text-indent:0;vertical-align:middle;direction:ltr;&quot;&gt;&lt;font style=&quot;font-size:11.29px;font-family:Arial;color:#000000;direction:ltr;letter-spacing:0px;line-height:120%;opacity:1&quot;&gt;A&lt;/font&gt;&lt;/p&gt;&lt;/div&gt;" style="verticalAlign=middle;align=right;overflow=width;vsdxID=13;fillColor=none;gradientColor=none;shape=stencil(nZBLDoAgDERP0z3SIyjew0SURgSD+Lu9kMZoXLhwN9O+tukAlrNpJg1SzDH4QW/URgNYgZTkjA4UkwJUgGXng+6DX1zLfmoymdXo17xh5zmRJ6Q42BWCfc2oJfdAr+Yv+AP9Cb7OJ3H/2JG1HNGz/84klThPVCc=);strokeColor=none;spacingTop=-3;spacingBottom=-3;spacingLeft=-2;spacingRight=-2;points=[];labelBackgroundColor=none;rounded=0;html=1;whiteSpace=wrap;" parent="9h3KFrInGehkcryOf0Qv-5" vertex="1">
          <mxGeometry width="63" height="12" as="geometry" />
        </mxCell>
        <mxCell id="9h3KFrInGehkcryOf0Qv-8" style="vsdxID=5;fillColor=none;gradientColor=none;strokeColor=none;points=[];labelBackgroundColor=none;rounded=0;html=1;whiteSpace=wrap;" parent="9h3KFrInGehkcryOf0Qv-5" vertex="1">
          <mxGeometry x="64" y="2" width="26" height="8" as="geometry" />
        </mxCell>
        <mxCell id="9h3KFrInGehkcryOf0Qv-9" style="vsdxID=15;fillColor=#000000;gradientColor=none;shape=stencil(nZBLDoAgDERP0z3SIyjew0SURgSD+Lu9kMZoXLhwN9O+tukAlrNpJg1SzDH4QW/URgNYgZTkjA4UkwJUgGXng+6DX1zLfmoymdXo17xh5zmRJ6Q42BWCfc2oJfdAr+Yv+AP9Cb7OJ3H/2JG1HNGz/84klThPVCc=);strokeColor=none;points=[];labelBackgroundColor=none;rounded=0;html=1;whiteSpace=wrap;" parent="9h3KFrInGehkcryOf0Qv-8" vertex="1">
          <mxGeometry x="14" width="8" height="8" as="geometry" />
        </mxCell>
        <mxCell id="9h3KFrInGehkcryOf0Qv-10" style="vsdxID=16;fillColor=#000000;gradientColor=none;shape=stencil(vVHLDsIgEPwajiQI6RfU+h8bu22JCGRB2/69kG1iazx58DazM/vIjjBtmiCi0CplCjecbZ8nYc5Ca+snJJsLEqYTph0C4Ujh4XvmEaqzont41gkL96naodXKrGF6YSfQtUi0OXXDVlqPfJNP6usotUhYbJIUMmQb/GGrAxpRljVycDBuc1hKM2LclX8/7H9nFfB+82Cd45T2+mcspcSRmu4F);strokeColor=none;points=[];labelBackgroundColor=none;rounded=0;html=1;whiteSpace=wrap;" parent="9h3KFrInGehkcryOf0Qv-8" vertex="1">
          <mxGeometry x="18" width="8" height="8" as="geometry" />
        </mxCell>
        <mxCell id="9h3KFrInGehkcryOf0Qv-11" style="vsdxID=17;fillColor=#000000;gradientColor=none;shape=stencil(vVHLDsIgEPwajiQI6RfU+h8bu22JCGRB2/69kG1iazx58DazM/vIjjBtmiCi0CplCjecbZ8nYc5Ca+snJJsLEqYTph0C4Ujh4XvmEaqzont41gkL96naodXKrGF6YSfQtUi0OXXDVlqPfJNP6usotUhYbJIUMmQb/GGrAxpRljVycDBuc1hKM2LclX8/7H9nFfB+82Cd45T2+mcspcSRmu4F);strokeColor=none;points=[];labelBackgroundColor=none;rounded=0;html=1;whiteSpace=wrap;" parent="9h3KFrInGehkcryOf0Qv-8" vertex="1">
          <mxGeometry x="10" width="8" height="8" as="geometry" />
        </mxCell>
        <mxCell id="9h3KFrInGehkcryOf0Qv-12" value="" style="vsdxID=6;edgeStyle=none;startArrow=none;endArrow=none;startSize=5;endSize=5;strokeColor=#000000;spacingTop=0;spacingBottom=0;spacingLeft=0;spacingRight=0;verticalAlign=middle;html=1;labelBackgroundColor=none;rounded=0;" parent="9h3KFrInGehkcryOf0Qv-8" edge="1">
          <mxGeometry relative="1" as="geometry">
            <Array as="points" />
            <mxPoint y="4" as="sourcePoint" />
            <mxPoint x="14" y="4" as="targetPoint" />
          </mxGeometry>
        </mxCell>
        <mxCell id="9h3KFrInGehkcryOf0Qv-13" value="" style="vsdxID=14;edgeStyle=none;startArrow=none;endArrow=none;startSize=5;endSize=5;strokeColor=#000000;spacingTop=0;spacingBottom=0;spacingLeft=0;spacingRight=0;verticalAlign=middle;html=1;labelBackgroundColor=none;rounded=0;" parent="9h3KFrInGehkcryOf0Qv-8" edge="1">
          <mxGeometry relative="1" as="geometry">
            <Array as="points" />
            <mxPoint y="2" as="sourcePoint" />
            <mxPoint y="6" as="targetPoint" />
          </mxGeometry>
        </mxCell>
        <mxCell id="9h3KFrInGehkcryOf0Qv-14" value="" style="group" parent="1" vertex="1" connectable="0">
          <mxGeometry x="320" y="386.00000000000006" width="91" height="12" as="geometry" />
        </mxCell>
        <mxCell id="9h3KFrInGehkcryOf0Qv-15" value="&lt;div style=&quot;&quot;&gt;&lt;p style=&quot;margin: 0px; text-indent: 0px; vertical-align: middle; direction: ltr;&quot;&gt;&lt;font face=&quot;Arial&quot;&gt;&lt;span style=&quot;font-size: 11.29px;&quot;&gt;P1&lt;/span&gt;&lt;/font&gt;&lt;/p&gt;&lt;/div&gt;" style="verticalAlign=top;align=left;overflow=width;vsdxID=13;fillColor=none;gradientColor=none;shape=stencil(nZBLDoAgDERP0z3SIyjew0SURgSD+Lu9kMZoXLhwN9O+tukAlrNpJg1SzDH4QW/URgNYgZTkjA4UkwJUgGXng+6DX1zLfmoymdXo17xh5zmRJ6Q42BWCfc2oJfdAr+Yv+AP9Cb7OJ3H/2JG1HNGz/84klThPVCc=);strokeColor=none;spacingTop=-3;spacingBottom=-3;spacingLeft=-2;spacingRight=-2;points=[];labelBackgroundColor=none;rounded=0;html=1;whiteSpace=wrap;rotation=0;" parent="9h3KFrInGehkcryOf0Qv-14" vertex="1">
          <mxGeometry x="28" width="63" height="12" as="geometry" />
        </mxCell>
        <mxCell id="9h3KFrInGehkcryOf0Qv-16" style="vsdxID=14;fillColor=none;gradientColor=none;strokeColor=none;points=[];labelBackgroundColor=none;rounded=0;html=1;whiteSpace=wrap;rotation=-180;" parent="9h3KFrInGehkcryOf0Qv-14" vertex="1">
          <mxGeometry y="3" width="26" height="8" as="geometry" />
        </mxCell>
        <mxCell id="9h3KFrInGehkcryOf0Qv-17" style="vsdxID=17;fillColor=#000000;gradientColor=none;shape=stencil(nZBLDoAgDERP0z3SIyjew0SURgSD+Lu9kMZoXLhwN9O+tukAlrNpJg1SzDH4QW/URgNYgZTkjA4UkwJUgGXng+6DX1zLfmoymdXo17xh5zmRJ6Q42BWCfc2oJfdAr+Yv+AP9Cb7OJ3H/2JG1HNGz/84klThPVCc=);strokeColor=none;points=[];labelBackgroundColor=none;rounded=0;html=1;whiteSpace=wrap;rotation=-180;" parent="9h3KFrInGehkcryOf0Qv-16" vertex="1">
          <mxGeometry x="4" width="8" height="8" as="geometry" />
        </mxCell>
        <mxCell id="9h3KFrInGehkcryOf0Qv-18" style="vsdxID=18;fillColor=#000000;gradientColor=none;shape=stencil(vVHLDsIgEPwajiQI6RfU+h8bu22JCGRB2/69kG1iazx58DazM/vIjjBtmiCi0CplCjecbZ8nYc5Ca+snJJsLEqYTph0C4Ujh4XvmEaqzont41gkL96naodXKrGF6YSfQtUi0OXXDVlqPfJNP6usotUhYbJIUMmQb/GGrAxpRljVycDBuc1hKM2LclX8/7H9nFfB+82Cd45T2+mcspcSRmu4F);strokeColor=none;points=[];labelBackgroundColor=none;rounded=0;html=1;whiteSpace=wrap;rotation=-180;" parent="9h3KFrInGehkcryOf0Qv-16" vertex="1">
          <mxGeometry width="8" height="8" as="geometry" />
        </mxCell>
        <mxCell id="9h3KFrInGehkcryOf0Qv-19" value="" style="vsdxID=15;edgeStyle=none;startArrow=none;endArrow=none;startSize=5;endSize=5;strokeColor=#000000;spacingTop=0;spacingBottom=0;spacingLeft=0;spacingRight=0;verticalAlign=middle;html=1;labelBackgroundColor=none;rounded=0;" parent="9h3KFrInGehkcryOf0Qv-16" edge="1">
          <mxGeometry relative="1" as="geometry">
            <Array as="points" />
            <mxPoint x="26" y="4" as="sourcePoint" />
            <mxPoint x="12" y="4" as="targetPoint" />
          </mxGeometry>
        </mxCell>
        <mxCell id="9h3KFrInGehkcryOf0Qv-20" value="" style="vsdxID=16;edgeStyle=none;startArrow=none;endArrow=none;startSize=5;endSize=5;strokeColor=#000000;spacingTop=0;spacingBottom=0;spacingLeft=0;spacingRight=0;verticalAlign=middle;html=1;labelBackgroundColor=none;rounded=0;" parent="9h3KFrInGehkcryOf0Qv-16" edge="1">
          <mxGeometry relative="1" as="geometry">
            <Array as="points" />
            <mxPoint x="26" y="6" as="sourcePoint" />
            <mxPoint x="26" y="2" as="targetPoint" />
          </mxGeometry>
        </mxCell>
        <mxCell id="9h3KFrInGehkcryOf0Qv-21" value="" style="group" parent="1" vertex="1" connectable="0">
          <mxGeometry x="320" y="366.00000000000006" width="91" height="12" as="geometry" />
        </mxCell>
        <mxCell id="9h3KFrInGehkcryOf0Qv-22" value="&lt;div style=&quot;&quot;&gt;&lt;p style=&quot;margin: 0px; text-indent: 0px; vertical-align: middle; direction: ltr;&quot;&gt;&lt;font face=&quot;Arial&quot;&gt;&lt;span style=&quot;font-size: 11.29px;&quot;&gt;P2&lt;/span&gt;&lt;/font&gt;&lt;/p&gt;&lt;/div&gt;" style="verticalAlign=top;align=left;overflow=width;vsdxID=13;fillColor=none;gradientColor=none;shape=stencil(nZBLDoAgDERP0z3SIyjew0SURgSD+Lu9kMZoXLhwN9O+tukAlrNpJg1SzDH4QW/URgNYgZTkjA4UkwJUgGXng+6DX1zLfmoymdXo17xh5zmRJ6Q42BWCfc2oJfdAr+Yv+AP9Cb7OJ3H/2JG1HNGz/84klThPVCc=);strokeColor=none;spacingTop=-3;spacingBottom=-3;spacingLeft=-2;spacingRight=-2;points=[];labelBackgroundColor=none;rounded=0;html=1;whiteSpace=wrap;rotation=0;" parent="9h3KFrInGehkcryOf0Qv-21" vertex="1">
          <mxGeometry x="28" width="63" height="12" as="geometry" />
        </mxCell>
        <mxCell id="9h3KFrInGehkcryOf0Qv-23" style="vsdxID=14;fillColor=none;gradientColor=none;strokeColor=none;points=[];labelBackgroundColor=none;rounded=0;html=1;whiteSpace=wrap;rotation=-180;" parent="9h3KFrInGehkcryOf0Qv-21" vertex="1">
          <mxGeometry y="3" width="26" height="8" as="geometry" />
        </mxCell>
        <mxCell id="9h3KFrInGehkcryOf0Qv-24" style="vsdxID=17;fillColor=#000000;gradientColor=none;shape=stencil(nZBLDoAgDERP0z3SIyjew0SURgSD+Lu9kMZoXLhwN9O+tukAlrNpJg1SzDH4QW/URgNYgZTkjA4UkwJUgGXng+6DX1zLfmoymdXo17xh5zmRJ6Q42BWCfc2oJfdAr+Yv+AP9Cb7OJ3H/2JG1HNGz/84klThPVCc=);strokeColor=none;points=[];labelBackgroundColor=none;rounded=0;html=1;whiteSpace=wrap;rotation=-180;" parent="9h3KFrInGehkcryOf0Qv-23" vertex="1">
          <mxGeometry x="4" width="8" height="8" as="geometry" />
        </mxCell>
        <mxCell id="9h3KFrInGehkcryOf0Qv-25" style="vsdxID=18;fillColor=#000000;gradientColor=none;shape=stencil(vVHLDsIgEPwajiQI6RfU+h8bu22JCGRB2/69kG1iazx58DazM/vIjjBtmiCi0CplCjecbZ8nYc5Ca+snJJsLEqYTph0C4Ujh4XvmEaqzont41gkL96naodXKrGF6YSfQtUi0OXXDVlqPfJNP6usotUhYbJIUMmQb/GGrAxpRljVycDBuc1hKM2LclX8/7H9nFfB+82Cd45T2+mcspcSRmu4F);strokeColor=none;points=[];labelBackgroundColor=none;rounded=0;html=1;whiteSpace=wrap;rotation=-180;" parent="9h3KFrInGehkcryOf0Qv-23" vertex="1">
          <mxGeometry width="8" height="8" as="geometry" />
        </mxCell>
        <mxCell id="9h3KFrInGehkcryOf0Qv-26" value="" style="vsdxID=15;edgeStyle=none;startArrow=none;endArrow=none;startSize=5;endSize=5;strokeColor=#000000;spacingTop=0;spacingBottom=0;spacingLeft=0;spacingRight=0;verticalAlign=middle;html=1;labelBackgroundColor=none;rounded=0;" parent="9h3KFrInGehkcryOf0Qv-23" edge="1">
          <mxGeometry relative="1" as="geometry">
            <Array as="points" />
            <mxPoint x="26" y="4" as="sourcePoint" />
            <mxPoint x="12" y="4" as="targetPoint" />
          </mxGeometry>
        </mxCell>
        <mxCell id="9h3KFrInGehkcryOf0Qv-27" value="" style="vsdxID=16;edgeStyle=none;startArrow=none;endArrow=none;startSize=5;endSize=5;strokeColor=#000000;spacingTop=0;spacingBottom=0;spacingLeft=0;spacingRight=0;verticalAlign=middle;html=1;labelBackgroundColor=none;rounded=0;" parent="9h3KFrInGehkcryOf0Qv-23" edge="1">
          <mxGeometry relative="1" as="geometry">
            <Array as="points" />
            <mxPoint x="26" y="6" as="sourcePoint" />
            <mxPoint x="26" y="2" as="targetPoint" />
          </mxGeometry>
        </mxCell>
        <UserObject label="" Row_1="" id="9h3KFrInGehkcryOf0Qv-28">
          <mxCell style="vsdxID=5;fillColor=none;gradientColor=none;strokeColor=none;points=[];labelBackgroundColor=none;rounded=0;html=1;whiteSpace=wrap;" parent="1" vertex="1">
            <mxGeometry x="431" y="387.00000000000006" width="89" height="12" as="geometry" />
          </mxCell>
        </UserObject>
        <mxCell id="9h3KFrInGehkcryOf0Qv-29" value="&lt;div style=&quot;font-size: 1px&quot;&gt;&lt;p style=&quot;text-align:right;margin-left:0;margin-right:0;margin-top:0px;margin-bottom:0px;text-indent:0;vertical-align:middle;direction:ltr;&quot;&gt;&lt;font style=&quot;font-size:11.29px;font-family:Arial;color:#000000;direction:ltr;letter-spacing:0px;line-height:120%;opacity:1&quot;&gt;N1&amp;nbsp;&lt;/font&gt;&lt;/p&gt;&lt;/div&gt;" style="verticalAlign=middle;align=right;overflow=width;vsdxID=13;fillColor=none;gradientColor=none;shape=stencil(nZBLDoAgDERP0z3SIyjew0SURgSD+Lu9kMZoXLhwN9O+tukAlrNpJg1SzDH4QW/URgNYgZTkjA4UkwJUgGXng+6DX1zLfmoymdXo17xh5zmRJ6Q42BWCfc2oJfdAr+Yv+AP9Cb7OJ3H/2JG1HNGz/84klThPVCc=);strokeColor=none;spacingTop=-3;spacingBottom=-3;spacingLeft=-2;spacingRight=-2;points=[];labelBackgroundColor=none;rounded=0;html=1;whiteSpace=wrap;" parent="9h3KFrInGehkcryOf0Qv-28" vertex="1">
          <mxGeometry width="63" height="12" as="geometry" />
        </mxCell>
        <mxCell id="9h3KFrInGehkcryOf0Qv-30" style="vsdxID=14;fillColor=none;gradientColor=none;strokeColor=none;points=[];labelBackgroundColor=none;rounded=0;html=1;whiteSpace=wrap;" parent="9h3KFrInGehkcryOf0Qv-28" vertex="1">
          <mxGeometry x="63" y="2" width="26" height="8" as="geometry" />
        </mxCell>
        <mxCell id="9h3KFrInGehkcryOf0Qv-31" style="vsdxID=17;fillColor=#000000;gradientColor=none;shape=stencil(nZBLDoAgDERP0z3SIyjew0SURgSD+Lu9kMZoXLhwN9O+tukAlrNpJg1SzDH4QW/URgNYgZTkjA4UkwJUgGXng+6DX1zLfmoymdXo17xh5zmRJ6Q42BWCfc2oJfdAr+Yv+AP9Cb7OJ3H/2JG1HNGz/84klThPVCc=);strokeColor=none;points=[];labelBackgroundColor=none;rounded=0;html=1;whiteSpace=wrap;" parent="9h3KFrInGehkcryOf0Qv-30" vertex="1">
          <mxGeometry x="14" width="8" height="8" as="geometry" />
        </mxCell>
        <mxCell id="9h3KFrInGehkcryOf0Qv-32" style="vsdxID=18;fillColor=#000000;gradientColor=none;shape=stencil(vVHLDsIgEPwajiQI6RfU+h8bu22JCGRB2/69kG1iazx58DazM/vIjjBtmiCi0CplCjecbZ8nYc5Ca+snJJsLEqYTph0C4Ujh4XvmEaqzont41gkL96naodXKrGF6YSfQtUi0OXXDVlqPfJNP6usotUhYbJIUMmQb/GGrAxpRljVycDBuc1hKM2LclX8/7H9nFfB+82Cd45T2+mcspcSRmu4F);strokeColor=none;points=[];labelBackgroundColor=none;rounded=0;html=1;whiteSpace=wrap;" parent="9h3KFrInGehkcryOf0Qv-30" vertex="1">
          <mxGeometry x="18" width="8" height="8" as="geometry" />
        </mxCell>
        <mxCell id="9h3KFrInGehkcryOf0Qv-33" value="" style="vsdxID=15;edgeStyle=none;startArrow=none;endArrow=none;startSize=5;endSize=5;strokeColor=#000000;spacingTop=0;spacingBottom=0;spacingLeft=0;spacingRight=0;verticalAlign=middle;html=1;labelBackgroundColor=none;rounded=0;" parent="9h3KFrInGehkcryOf0Qv-30" edge="1">
          <mxGeometry relative="1" as="geometry">
            <Array as="points" />
            <mxPoint y="4" as="sourcePoint" />
            <mxPoint x="14" y="4" as="targetPoint" />
          </mxGeometry>
        </mxCell>
        <mxCell id="9h3KFrInGehkcryOf0Qv-34" value="" style="vsdxID=16;edgeStyle=none;startArrow=none;endArrow=none;startSize=5;endSize=5;strokeColor=#000000;spacingTop=0;spacingBottom=0;spacingLeft=0;spacingRight=0;verticalAlign=middle;html=1;labelBackgroundColor=none;rounded=0;" parent="9h3KFrInGehkcryOf0Qv-30" edge="1">
          <mxGeometry relative="1" as="geometry">
            <Array as="points" />
            <mxPoint y="2" as="sourcePoint" />
            <mxPoint y="6" as="targetPoint" />
          </mxGeometry>
        </mxCell>
        <UserObject label="" Row_1="" id="9h3KFrInGehkcryOf0Qv-35">
          <mxCell style="vsdxID=5;fillColor=none;gradientColor=none;strokeColor=none;points=[];labelBackgroundColor=none;rounded=0;html=1;whiteSpace=wrap;" parent="1" vertex="1">
            <mxGeometry x="431" y="366.00000000000006" width="89" height="12" as="geometry" />
          </mxCell>
        </UserObject>
        <mxCell id="9h3KFrInGehkcryOf0Qv-36" value="&lt;div style=&quot;font-size: 1px&quot;&gt;&lt;p style=&quot;text-align:right;margin-left:0;margin-right:0;margin-top:0px;margin-bottom:0px;text-indent:0;vertical-align:middle;direction:ltr;&quot;&gt;&lt;font style=&quot;font-size:11.29px;font-family:Arial;color:#000000;direction:ltr;letter-spacing:0px;line-height:120%;opacity:1&quot;&gt;N2&amp;nbsp;&lt;/font&gt;&lt;/p&gt;&lt;/div&gt;" style="verticalAlign=middle;align=right;overflow=width;vsdxID=13;fillColor=none;gradientColor=none;shape=stencil(nZBLDoAgDERP0z3SIyjew0SURgSD+Lu9kMZoXLhwN9O+tukAlrNpJg1SzDH4QW/URgNYgZTkjA4UkwJUgGXng+6DX1zLfmoymdXo17xh5zmRJ6Q42BWCfc2oJfdAr+Yv+AP9Cb7OJ3H/2JG1HNGz/84klThPVCc=);strokeColor=none;spacingTop=-3;spacingBottom=-3;spacingLeft=-2;spacingRight=-2;points=[];labelBackgroundColor=none;rounded=0;html=1;whiteSpace=wrap;" parent="9h3KFrInGehkcryOf0Qv-35" vertex="1">
          <mxGeometry width="63" height="12" as="geometry" />
        </mxCell>
        <mxCell id="9h3KFrInGehkcryOf0Qv-37" style="vsdxID=14;fillColor=none;gradientColor=none;strokeColor=none;points=[];labelBackgroundColor=none;rounded=0;html=1;whiteSpace=wrap;" parent="9h3KFrInGehkcryOf0Qv-35" vertex="1">
          <mxGeometry x="63" y="2" width="26" height="8" as="geometry" />
        </mxCell>
        <mxCell id="9h3KFrInGehkcryOf0Qv-38" style="vsdxID=17;fillColor=#000000;gradientColor=none;shape=stencil(nZBLDoAgDERP0z3SIyjew0SURgSD+Lu9kMZoXLhwN9O+tukAlrNpJg1SzDH4QW/URgNYgZTkjA4UkwJUgGXng+6DX1zLfmoymdXo17xh5zmRJ6Q42BWCfc2oJfdAr+Yv+AP9Cb7OJ3H/2JG1HNGz/84klThPVCc=);strokeColor=none;points=[];labelBackgroundColor=none;rounded=0;html=1;whiteSpace=wrap;" parent="9h3KFrInGehkcryOf0Qv-37" vertex="1">
          <mxGeometry x="14" width="8" height="8" as="geometry" />
        </mxCell>
        <mxCell id="9h3KFrInGehkcryOf0Qv-39" style="vsdxID=18;fillColor=#000000;gradientColor=none;shape=stencil(vVHLDsIgEPwajiQI6RfU+h8bu22JCGRB2/69kG1iazx58DazM/vIjjBtmiCi0CplCjecbZ8nYc5Ca+snJJsLEqYTph0C4Ujh4XvmEaqzont41gkL96naodXKrGF6YSfQtUi0OXXDVlqPfJNP6usotUhYbJIUMmQb/GGrAxpRljVycDBuc1hKM2LclX8/7H9nFfB+82Cd45T2+mcspcSRmu4F);strokeColor=none;points=[];labelBackgroundColor=none;rounded=0;html=1;whiteSpace=wrap;" parent="9h3KFrInGehkcryOf0Qv-37" vertex="1">
          <mxGeometry x="18" width="8" height="8" as="geometry" />
        </mxCell>
        <mxCell id="9h3KFrInGehkcryOf0Qv-40" value="" style="vsdxID=15;edgeStyle=none;startArrow=none;endArrow=none;startSize=5;endSize=5;strokeColor=#000000;spacingTop=0;spacingBottom=0;spacingLeft=0;spacingRight=0;verticalAlign=middle;html=1;labelBackgroundColor=none;rounded=0;" parent="9h3KFrInGehkcryOf0Qv-37" edge="1">
          <mxGeometry relative="1" as="geometry">
            <Array as="points" />
            <mxPoint y="4" as="sourcePoint" />
            <mxPoint x="14" y="4" as="targetPoint" />
          </mxGeometry>
        </mxCell>
        <mxCell id="9h3KFrInGehkcryOf0Qv-41" value="" style="vsdxID=16;edgeStyle=none;startArrow=none;endArrow=none;startSize=5;endSize=5;strokeColor=#000000;spacingTop=0;spacingBottom=0;spacingLeft=0;spacingRight=0;verticalAlign=middle;html=1;labelBackgroundColor=none;rounded=0;" parent="9h3KFrInGehkcryOf0Qv-37" edge="1">
          <mxGeometry relative="1" as="geometry">
            <Array as="points" />
            <mxPoint y="2" as="sourcePoint" />
            <mxPoint y="6" as="targetPoint" />
          </mxGeometry>
        </mxCell>
        <mxCell id="9h3KFrInGehkcryOf0Qv-42" style="vsdxID=5;fillColor=none;gradientColor=none;strokeColor=none;flipV=1;points=[];labelBackgroundColor=none;rounded=0;html=1;whiteSpace=wrap;rotation=-180;" parent="1" vertex="1">
          <mxGeometry x="548" y="388" width="12" height="12" as="geometry" />
        </mxCell>
        <mxCell id="9h3KFrInGehkcryOf0Qv-43" style="vsdxID=6;rotation=-90;fillColor=#000000;gradientColor=none;shape=stencil(jZBLDoAgDERP0z3SIyjew0SURgSD+Lu9kMb4Wbmb6bw2bQHL2TSTBinmGPygN2qjAaxASnJGB4pJASrAsvNB98EvrmU/NZnMavRrnrBzn8gdUhzsCsG+ZtSSe6BX+At+o7/Bz8wk7sU7spbvfubfQ1OJn4TqBA==);strokeColor=#000000;flipV=1;points=[];labelBackgroundColor=none;rounded=0;html=1;whiteSpace=wrap;" parent="9h3KFrInGehkcryOf0Qv-42" vertex="1">
          <mxGeometry x="4" y="4" width="8" height="8" as="geometry" />
        </mxCell>
        <mxCell id="9h3KFrInGehkcryOf0Qv-44" value="" style="vsdxID=7;edgeStyle=none;startArrow=none;endArrow=none;startSize=5;endSize=5;strokeColor=#000000;spacingTop=0;spacingBottom=0;spacingLeft=0;spacingRight=0;verticalAlign=middle;html=1;labelBackgroundColor=none;rounded=0;" parent="9h3KFrInGehkcryOf0Qv-42" edge="1">
          <mxGeometry relative="1" as="geometry">
            <Array as="points" />
            <mxPoint y="12" as="sourcePoint" />
            <mxPoint as="targetPoint" />
          </mxGeometry>
        </mxCell>
        <UserObject label="&lt;div style=&quot;font-size: 1px&quot;&gt;&lt;font style=&quot;font-size:7.06px;font-family:Arial;color:#000000;direction:ltr;letter-spacing:0px;line-height:120%;opacity:1&quot;&gt;W1&lt;/font&gt;&lt;/div&gt;" Row_1="" id="9h3KFrInGehkcryOf0Qv-45">
          <mxCell style="verticalAlign=middle;align=center;overflow=width;vsdxID=5;fillColor=none;gradientColor=none;shape=stencil(nZBLDoAgDERP0z3SIyjew0SURgSD+Lu9kMZoXLhwN9O+tukAlrNpJg1SzDH4QW/URgNYgZTkjA4UkwJUgGXng+6DX1zLfmoymdXo17xh5zmRJ6Q42BWCfc2oJfdAr+Yv+AP9Cb7OJ3H/2JG1HNGz/84klThPVCc=);strokeColor=none;spacingTop=-3;spacingBottom=-3;spacingLeft=-3;spacingRight=-3;points=[];labelBackgroundColor=none;rounded=0;html=1;whiteSpace=wrap;" parent="1" vertex="1">
            <mxGeometry x="276" y="402" width="24" height="8" as="geometry" />
          </mxCell>
        </UserObject>
        <UserObject label="&lt;div style=&quot;font-size: 1px&quot;&gt;&lt;font style=&quot;font-size:7.06px;font-family:Arial;color:#000000;direction:ltr;letter-spacing:0px;line-height:120%;opacity:1&quot;&gt;W2&lt;/font&gt;&lt;/div&gt;" Row_1="" id="9h3KFrInGehkcryOf0Qv-46">
          <mxCell style="verticalAlign=middle;align=center;overflow=width;vsdxID=5;fillColor=none;gradientColor=none;shape=stencil(nZBLDoAgDERP0z3SIyjew0SURgSD+Lu9kMZoXLhwN9O+tukAlrNpJg1SzDH4QW/URgNYgZTkjA4UkwJUgGXng+6DX1zLfmoymdXo17xh5zmRJ6Q42BWCfc2oJfdAr+Yv+AP9Cb7OJ3H/2JG1HNGz/84klThPVCc=);strokeColor=none;spacingTop=-3;spacingBottom=-3;spacingLeft=-3;spacingRight=-3;points=[];labelBackgroundColor=none;rounded=0;html=1;whiteSpace=wrap;" parent="1" vertex="1">
            <mxGeometry x="543" y="402" width="24" height="8" as="geometry" />
          </mxCell>
        </UserObject>
        <mxCell id="9h3KFrInGehkcryOf0Qv-47" value="&lt;div style=&quot;font-size: 1px&quot;&gt;&lt;p style=&quot;text-align:right;margin-left:0;margin-right:0;margin-top:0px;margin-bottom:0px;text-indent:0;vertical-align:middle;direction:ltr;&quot;&gt;&lt;font style=&quot;font-size:11.29px;font-family:Arial;color:#000000;direction:ltr;letter-spacing:0px;line-height:120%;opacity:1&quot;&gt;&lt;br/&gt;&lt;/font&gt;&lt;/p&gt;&lt;/div&gt;" style="verticalAlign=middle;align=right;overflow=width;vsdxID=12;fillColor=none;gradientColor=none;strokeColor=none;spacingTop=-3;spacingBottom=-3;spacingLeft=-3;spacingRight=-1;points=[];labelBackgroundColor=none;rounded=0;html=1;whiteSpace=wrap;rotation=-180;" parent="1" vertex="1">
          <mxGeometry x="607" y="310" width="28" height="12" as="geometry" />
        </mxCell>
        <mxCell id="9h3KFrInGehkcryOf0Qv-48" value="" style="group" parent="1" vertex="1" connectable="0">
          <mxGeometry x="576" y="387" width="90" height="12" as="geometry" />
        </mxCell>
        <mxCell id="9h3KFrInGehkcryOf0Qv-49" value="&lt;div style=&quot;font-size: 1px&quot;&gt;&lt;p style=&quot;margin: 0px; text-indent: 0px; vertical-align: middle; direction: ltr;&quot;&gt;&lt;font style=&quot;font-size:11.29px;font-family:Arial;color:#000000;direction:ltr;letter-spacing:0px;line-height:120%;opacity:1&quot;&gt;F&lt;/font&gt;&lt;/p&gt;&lt;/div&gt;" style="verticalAlign=middle;align=left;overflow=width;vsdxID=13;fillColor=none;gradientColor=none;shape=stencil(nZBLDoAgDERP0z3SIyjew0SURgSD+Lu9kMZoXLhwN9O+tukAlrNpJg1SzDH4QW/URgNYgZTkjA4UkwJUgGXng+6DX1zLfmoymdXo17xh5zmRJ6Q42BWCfc2oJfdAr+Yv+AP9Cb7OJ3H/2JG1HNGz/84klThPVCc=);strokeColor=none;spacingTop=-3;spacingBottom=-3;spacingLeft=-2;spacingRight=-2;points=[];labelBackgroundColor=none;rounded=0;html=1;whiteSpace=wrap;rotation=0;" parent="9h3KFrInGehkcryOf0Qv-48" vertex="1">
          <mxGeometry x="27" width="63" height="12" as="geometry" />
        </mxCell>
        <mxCell id="9h3KFrInGehkcryOf0Qv-50" style="vsdxID=5;fillColor=none;gradientColor=none;strokeColor=none;points=[];labelBackgroundColor=none;rounded=0;html=1;whiteSpace=wrap;rotation=-180;" parent="9h3KFrInGehkcryOf0Qv-48" vertex="1">
          <mxGeometry y="2" width="26" height="8" as="geometry" />
        </mxCell>
        <mxCell id="9h3KFrInGehkcryOf0Qv-51" style="vsdxID=15;fillColor=#000000;gradientColor=none;shape=stencil(nZBLDoAgDERP0z3SIyjew0SURgSD+Lu9kMZoXLhwN9O+tukAlrNpJg1SzDH4QW/URgNYgZTkjA4UkwJUgGXng+6DX1zLfmoymdXo17xh5zmRJ6Q42BWCfc2oJfdAr+Yv+AP9Cb7OJ3H/2JG1HNGz/84klThPVCc=);strokeColor=none;points=[];labelBackgroundColor=none;rounded=0;html=1;whiteSpace=wrap;rotation=-180;" parent="9h3KFrInGehkcryOf0Qv-50" vertex="1">
          <mxGeometry x="4" width="8" height="8" as="geometry" />
        </mxCell>
        <mxCell id="9h3KFrInGehkcryOf0Qv-52" style="vsdxID=16;fillColor=#000000;gradientColor=none;shape=stencil(vVHLDsIgEPwajiQI6RfU+h8bu22JCGRB2/69kG1iazx58DazM/vIjjBtmiCi0CplCjecbZ8nYc5Ca+snJJsLEqYTph0C4Ujh4XvmEaqzont41gkL96naodXKrGF6YSfQtUi0OXXDVlqPfJNP6usotUhYbJIUMmQb/GGrAxpRljVycDBuc1hKM2LclX8/7H9nFfB+82Cd45T2+mcspcSRmu4F);strokeColor=none;points=[];labelBackgroundColor=none;rounded=0;html=1;whiteSpace=wrap;rotation=-180;" parent="9h3KFrInGehkcryOf0Qv-50" vertex="1">
          <mxGeometry width="8" height="8" as="geometry" />
        </mxCell>
        <mxCell id="9h3KFrInGehkcryOf0Qv-53" style="vsdxID=17;fillColor=#000000;gradientColor=none;shape=stencil(vVHLDsIgEPwajiQI6RfU+h8bu22JCGRB2/69kG1iazx58DazM/vIjjBtmiCi0CplCjecbZ8nYc5Ca+snJJsLEqYTph0C4Ujh4XvmEaqzont41gkL96naodXKrGF6YSfQtUi0OXXDVlqPfJNP6usotUhYbJIUMmQb/GGrAxpRljVycDBuc1hKM2LclX8/7H9nFfB+82Cd45T2+mcspcSRmu4F);strokeColor=none;points=[];labelBackgroundColor=none;rounded=0;html=1;whiteSpace=wrap;rotation=-180;" parent="9h3KFrInGehkcryOf0Qv-50" vertex="1">
          <mxGeometry x="8" width="8" height="8" as="geometry" />
        </mxCell>
        <mxCell id="9h3KFrInGehkcryOf0Qv-54" value="" style="vsdxID=6;edgeStyle=none;startArrow=none;endArrow=none;startSize=5;endSize=5;strokeColor=#000000;spacingTop=0;spacingBottom=0;spacingLeft=0;spacingRight=0;verticalAlign=middle;html=1;labelBackgroundColor=none;rounded=0;" parent="9h3KFrInGehkcryOf0Qv-50" edge="1">
          <mxGeometry relative="1" as="geometry">
            <Array as="points" />
            <mxPoint x="26" y="4" as="sourcePoint" />
            <mxPoint x="12" y="4" as="targetPoint" />
          </mxGeometry>
        </mxCell>
        <mxCell id="9h3KFrInGehkcryOf0Qv-55" value="" style="vsdxID=14;edgeStyle=none;startArrow=none;endArrow=none;startSize=5;endSize=5;strokeColor=#000000;spacingTop=0;spacingBottom=0;spacingLeft=0;spacingRight=0;verticalAlign=middle;html=1;labelBackgroundColor=none;rounded=0;" parent="9h3KFrInGehkcryOf0Qv-50" edge="1">
          <mxGeometry relative="1" as="geometry">
            <Array as="points" />
            <mxPoint x="26" y="6" as="sourcePoint" />
            <mxPoint x="26" y="2" as="targetPoint" />
          </mxGeometry>
        </mxCell>
        <mxCell id="9h3KFrInGehkcryOf0Qv-56" style="vsdxID=5;edgeStyle=none;startArrow=none;endArrow=none;startSize=5;endSize=5;strokeWidth=2;strokeColor=#000000;spacingTop=0;spacingBottom=0;spacingLeft=0;spacingRight=0;verticalAlign=middle;html=1;labelBackgroundColor=none;rounded=0;" parent="1" edge="1">
          <mxGeometry y="-1118" relative="1" as="geometry">
            <mxPoint y="-1118" as="offset" />
            <Array as="points" />
            <mxPoint x="227" y="400" as="sourcePoint" />
            <mxPoint x="620" y="400" as="targetPoint" />
          </mxGeometry>
        </mxCell>
      </root>
    </mxGraphModel>
  </diagram>
  <diagram name="Ohne Flankenschutz" id="rfmJGrIy42yXPLRKwqxg">
    <mxGraphModel dx="221" dy="148" grid="1" gridSize="10" guides="1" tooltips="1" connect="1" arrows="1" fold="1" page="0" pageScale="1" pageWidth="827" pageHeight="1169" math="0" shadow="0">
      <root>
        <mxCell id="0" />
        <mxCell id="1" parent="0" />
        <mxCell id="eqKUxoGvrXesLs2YRMUO-2" style="vsdxID=5;edgeStyle=none;startArrow=none;endArrow=none;startSize=5;endSize=5;strokeWidth=2;strokeColor=#000000;spacingTop=0;spacingBottom=0;spacingLeft=0;spacingRight=0;verticalAlign=middle;html=1;labelBackgroundColor=none;rounded=0;exitX=1.028;exitY=0.014;exitDx=0;exitDy=0;exitPerimeter=0;" parent="1" source="eqKUxoGvrXesLs2YRMUO-6" edge="1">
          <mxGeometry y="-1118" relative="1" as="geometry">
            <mxPoint y="-1118" as="offset" />
            <Array as="points">
              <mxPoint x="300" y="380" />
              <mxPoint x="540" y="380" />
            </Array>
            <mxPoint x="270" y="388" as="sourcePoint" />
            <mxPoint x="560" y="400" as="targetPoint" />
          </mxGeometry>
        </mxCell>
        <mxCell id="eqKUxoGvrXesLs2YRMUO-6" style="vsdxID=5;fillColor=none;gradientColor=none;strokeColor=none;points=[];labelBackgroundColor=none;rounded=0;html=1;whiteSpace=wrap;rotation=-180;" parent="1" vertex="1">
          <mxGeometry x="280" y="388" width="12" height="12" as="geometry" />
        </mxCell>
        <mxCell id="eqKUxoGvrXesLs2YRMUO-7" style="vsdxID=6;rotation=90;fillColor=#000000;gradientColor=none;shape=stencil(jZBLDoAgDERP0z3SIyjew0SURgSD+Lu9kMb4Wbmb6bw2bQHL2TSTBinmGPygN2qjAaxASnJGB4pJASrAsvNB98EvrmU/NZnMavRrnrBzn8gdUhzsCsG+ZtSSe6BX+At+o7/Bz8wk7sU7spbvfubfQ1OJn4TqBA==);strokeColor=#000000;flipH=1;flipV=1;points=[];labelBackgroundColor=none;rounded=0;html=1;whiteSpace=wrap;" parent="eqKUxoGvrXesLs2YRMUO-6" vertex="1">
          <mxGeometry y="4" width="8" height="8" as="geometry" />
        </mxCell>
        <mxCell id="eqKUxoGvrXesLs2YRMUO-8" value="" style="vsdxID=7;edgeStyle=none;startArrow=none;endArrow=none;startSize=5;endSize=5;strokeColor=#000000;spacingTop=0;spacingBottom=0;spacingLeft=0;spacingRight=0;verticalAlign=middle;html=1;labelBackgroundColor=none;rounded=0;" parent="eqKUxoGvrXesLs2YRMUO-6" edge="1">
          <mxGeometry relative="1" as="geometry">
            <Array as="points" />
            <mxPoint x="12" y="12" as="sourcePoint" />
            <mxPoint x="12" as="targetPoint" />
          </mxGeometry>
        </mxCell>
        <UserObject label="" Row_1="" id="eqKUxoGvrXesLs2YRMUO-9">
          <mxCell style="vsdxID=18;fillColor=none;gradientColor=none;strokeColor=none;points=[];labelBackgroundColor=none;rounded=0;html=1;whiteSpace=wrap;" parent="1" vertex="1">
            <mxGeometry x="180" y="401" width="90" height="12" as="geometry" />
          </mxCell>
        </UserObject>
        <mxCell id="eqKUxoGvrXesLs2YRMUO-10" value="&lt;div style=&quot;font-size: 1px&quot;&gt;&lt;p style=&quot;text-align:right;margin-left:0;margin-right:0;margin-top:0px;margin-bottom:0px;text-indent:0;vertical-align:middle;direction:ltr;&quot;&gt;&lt;font style=&quot;font-size:11.29px;font-family:Arial;color:#000000;direction:ltr;letter-spacing:0px;line-height:120%;opacity:1&quot;&gt;&lt;br/&gt;&lt;/font&gt;&lt;/p&gt;&lt;/div&gt;" style="verticalAlign=middle;align=right;overflow=width;vsdxID=12;fillColor=none;gradientColor=none;strokeColor=none;spacingTop=-3;spacingBottom=-3;spacingLeft=-3;spacingRight=-1;points=[];labelBackgroundColor=none;rounded=0;html=1;whiteSpace=wrap;" parent="eqKUxoGvrXesLs2YRMUO-9" vertex="1">
          <mxGeometry x="35" width="28" height="12" as="geometry" />
        </mxCell>
        <mxCell id="eqKUxoGvrXesLs2YRMUO-11" value="&lt;div style=&quot;font-size: 1px&quot;&gt;&lt;p style=&quot;text-align:right;margin-left:0;margin-right:0;margin-top:0px;margin-bottom:0px;text-indent:0;vertical-align:middle;direction:ltr;&quot;&gt;&lt;font style=&quot;font-size:11.29px;font-family:Arial;color:#000000;direction:ltr;letter-spacing:0px;line-height:120%;opacity:1&quot;&gt;A&lt;/font&gt;&lt;/p&gt;&lt;/div&gt;" style="verticalAlign=middle;align=right;overflow=width;vsdxID=13;fillColor=none;gradientColor=none;shape=stencil(nZBLDoAgDERP0z3SIyjew0SURgSD+Lu9kMZoXLhwN9O+tukAlrNpJg1SzDH4QW/URgNYgZTkjA4UkwJUgGXng+6DX1zLfmoymdXo17xh5zmRJ6Q42BWCfc2oJfdAr+Yv+AP9Cb7OJ3H/2JG1HNGz/84klThPVCc=);strokeColor=none;spacingTop=-3;spacingBottom=-3;spacingLeft=-2;spacingRight=-2;points=[];labelBackgroundColor=none;rounded=0;html=1;whiteSpace=wrap;" parent="eqKUxoGvrXesLs2YRMUO-9" vertex="1">
          <mxGeometry width="63" height="12" as="geometry" />
        </mxCell>
        <mxCell id="eqKUxoGvrXesLs2YRMUO-12" style="vsdxID=5;fillColor=none;gradientColor=none;strokeColor=none;points=[];labelBackgroundColor=none;rounded=0;html=1;whiteSpace=wrap;" parent="eqKUxoGvrXesLs2YRMUO-9" vertex="1">
          <mxGeometry x="64" y="2" width="26" height="8" as="geometry" />
        </mxCell>
        <mxCell id="eqKUxoGvrXesLs2YRMUO-13" style="vsdxID=15;fillColor=#000000;gradientColor=none;shape=stencil(nZBLDoAgDERP0z3SIyjew0SURgSD+Lu9kMZoXLhwN9O+tukAlrNpJg1SzDH4QW/URgNYgZTkjA4UkwJUgGXng+6DX1zLfmoymdXo17xh5zmRJ6Q42BWCfc2oJfdAr+Yv+AP9Cb7OJ3H/2JG1HNGz/84klThPVCc=);strokeColor=none;points=[];labelBackgroundColor=none;rounded=0;html=1;whiteSpace=wrap;" parent="eqKUxoGvrXesLs2YRMUO-12" vertex="1">
          <mxGeometry x="14" width="8" height="8" as="geometry" />
        </mxCell>
        <mxCell id="eqKUxoGvrXesLs2YRMUO-14" style="vsdxID=16;fillColor=#000000;gradientColor=none;shape=stencil(vVHLDsIgEPwajiQI6RfU+h8bu22JCGRB2/69kG1iazx58DazM/vIjjBtmiCi0CplCjecbZ8nYc5Ca+snJJsLEqYTph0C4Ujh4XvmEaqzont41gkL96naodXKrGF6YSfQtUi0OXXDVlqPfJNP6usotUhYbJIUMmQb/GGrAxpRljVycDBuc1hKM2LclX8/7H9nFfB+82Cd45T2+mcspcSRmu4F);strokeColor=none;points=[];labelBackgroundColor=none;rounded=0;html=1;whiteSpace=wrap;" parent="eqKUxoGvrXesLs2YRMUO-12" vertex="1">
          <mxGeometry x="18" width="8" height="8" as="geometry" />
        </mxCell>
        <mxCell id="eqKUxoGvrXesLs2YRMUO-15" style="vsdxID=17;fillColor=#000000;gradientColor=none;shape=stencil(vVHLDsIgEPwajiQI6RfU+h8bu22JCGRB2/69kG1iazx58DazM/vIjjBtmiCi0CplCjecbZ8nYc5Ca+snJJsLEqYTph0C4Ujh4XvmEaqzont41gkL96naodXKrGF6YSfQtUi0OXXDVlqPfJNP6usotUhYbJIUMmQb/GGrAxpRljVycDBuc1hKM2LclX8/7H9nFfB+82Cd45T2+mcspcSRmu4F);strokeColor=none;points=[];labelBackgroundColor=none;rounded=0;html=1;whiteSpace=wrap;" parent="eqKUxoGvrXesLs2YRMUO-12" vertex="1">
          <mxGeometry x="10" width="8" height="8" as="geometry" />
        </mxCell>
        <mxCell id="eqKUxoGvrXesLs2YRMUO-16" value="" style="vsdxID=6;edgeStyle=none;startArrow=none;endArrow=none;startSize=5;endSize=5;strokeColor=#000000;spacingTop=0;spacingBottom=0;spacingLeft=0;spacingRight=0;verticalAlign=middle;html=1;labelBackgroundColor=none;rounded=0;" parent="eqKUxoGvrXesLs2YRMUO-12" edge="1">
          <mxGeometry relative="1" as="geometry">
            <Array as="points" />
            <mxPoint y="4" as="sourcePoint" />
            <mxPoint x="14" y="4" as="targetPoint" />
          </mxGeometry>
        </mxCell>
        <mxCell id="eqKUxoGvrXesLs2YRMUO-17" value="" style="vsdxID=14;edgeStyle=none;startArrow=none;endArrow=none;startSize=5;endSize=5;strokeColor=#000000;spacingTop=0;spacingBottom=0;spacingLeft=0;spacingRight=0;verticalAlign=middle;html=1;labelBackgroundColor=none;rounded=0;" parent="eqKUxoGvrXesLs2YRMUO-12" edge="1">
          <mxGeometry relative="1" as="geometry">
            <Array as="points" />
            <mxPoint y="2" as="sourcePoint" />
            <mxPoint y="6" as="targetPoint" />
          </mxGeometry>
        </mxCell>
        <mxCell id="eqKUxoGvrXesLs2YRMUO-57" value="" style="group" parent="1" vertex="1" connectable="0">
          <mxGeometry x="320" y="386.00000000000006" width="91" height="12" as="geometry" />
        </mxCell>
        <mxCell id="eqKUxoGvrXesLs2YRMUO-44" value="&lt;div style=&quot;&quot;&gt;&lt;p style=&quot;margin: 0px; text-indent: 0px; vertical-align: middle; direction: ltr;&quot;&gt;&lt;font face=&quot;Arial&quot;&gt;&lt;span style=&quot;font-size: 11.29px;&quot;&gt;P1&lt;/span&gt;&lt;/font&gt;&lt;/p&gt;&lt;/div&gt;" style="verticalAlign=top;align=left;overflow=width;vsdxID=13;fillColor=none;gradientColor=none;shape=stencil(nZBLDoAgDERP0z3SIyjew0SURgSD+Lu9kMZoXLhwN9O+tukAlrNpJg1SzDH4QW/URgNYgZTkjA4UkwJUgGXng+6DX1zLfmoymdXo17xh5zmRJ6Q42BWCfc2oJfdAr+Yv+AP9Cb7OJ3H/2JG1HNGz/84klThPVCc=);strokeColor=none;spacingTop=-3;spacingBottom=-3;spacingLeft=-2;spacingRight=-2;points=[];labelBackgroundColor=none;rounded=0;html=1;whiteSpace=wrap;rotation=0;" parent="eqKUxoGvrXesLs2YRMUO-57" vertex="1">
          <mxGeometry x="28" width="63" height="12" as="geometry" />
        </mxCell>
        <mxCell id="eqKUxoGvrXesLs2YRMUO-45" style="vsdxID=14;fillColor=none;gradientColor=none;strokeColor=none;points=[];labelBackgroundColor=none;rounded=0;html=1;whiteSpace=wrap;rotation=-180;" parent="eqKUxoGvrXesLs2YRMUO-57" vertex="1">
          <mxGeometry y="3" width="26" height="8" as="geometry" />
        </mxCell>
        <mxCell id="eqKUxoGvrXesLs2YRMUO-46" style="vsdxID=17;fillColor=#000000;gradientColor=none;shape=stencil(nZBLDoAgDERP0z3SIyjew0SURgSD+Lu9kMZoXLhwN9O+tukAlrNpJg1SzDH4QW/URgNYgZTkjA4UkwJUgGXng+6DX1zLfmoymdXo17xh5zmRJ6Q42BWCfc2oJfdAr+Yv+AP9Cb7OJ3H/2JG1HNGz/84klThPVCc=);strokeColor=none;points=[];labelBackgroundColor=none;rounded=0;html=1;whiteSpace=wrap;rotation=-180;" parent="eqKUxoGvrXesLs2YRMUO-45" vertex="1">
          <mxGeometry x="4" width="8" height="8" as="geometry" />
        </mxCell>
        <mxCell id="eqKUxoGvrXesLs2YRMUO-47" style="vsdxID=18;fillColor=#000000;gradientColor=none;shape=stencil(vVHLDsIgEPwajiQI6RfU+h8bu22JCGRB2/69kG1iazx58DazM/vIjjBtmiCi0CplCjecbZ8nYc5Ca+snJJsLEqYTph0C4Ujh4XvmEaqzont41gkL96naodXKrGF6YSfQtUi0OXXDVlqPfJNP6usotUhYbJIUMmQb/GGrAxpRljVycDBuc1hKM2LclX8/7H9nFfB+82Cd45T2+mcspcSRmu4F);strokeColor=none;points=[];labelBackgroundColor=none;rounded=0;html=1;whiteSpace=wrap;rotation=-180;" parent="eqKUxoGvrXesLs2YRMUO-45" vertex="1">
          <mxGeometry width="8" height="8" as="geometry" />
        </mxCell>
        <mxCell id="eqKUxoGvrXesLs2YRMUO-48" value="" style="vsdxID=15;edgeStyle=none;startArrow=none;endArrow=none;startSize=5;endSize=5;strokeColor=#000000;spacingTop=0;spacingBottom=0;spacingLeft=0;spacingRight=0;verticalAlign=middle;html=1;labelBackgroundColor=none;rounded=0;" parent="eqKUxoGvrXesLs2YRMUO-45" edge="1">
          <mxGeometry relative="1" as="geometry">
            <Array as="points" />
            <mxPoint x="26" y="4" as="sourcePoint" />
            <mxPoint x="12" y="4" as="targetPoint" />
          </mxGeometry>
        </mxCell>
        <mxCell id="eqKUxoGvrXesLs2YRMUO-49" value="" style="vsdxID=16;edgeStyle=none;startArrow=none;endArrow=none;startSize=5;endSize=5;strokeColor=#000000;spacingTop=0;spacingBottom=0;spacingLeft=0;spacingRight=0;verticalAlign=middle;html=1;labelBackgroundColor=none;rounded=0;" parent="eqKUxoGvrXesLs2YRMUO-45" edge="1">
          <mxGeometry relative="1" as="geometry">
            <Array as="points" />
            <mxPoint x="26" y="6" as="sourcePoint" />
            <mxPoint x="26" y="2" as="targetPoint" />
          </mxGeometry>
        </mxCell>
        <mxCell id="eqKUxoGvrXesLs2YRMUO-58" value="" style="group" parent="1" vertex="1" connectable="0">
          <mxGeometry x="320" y="366.00000000000006" width="91" height="12" as="geometry" />
        </mxCell>
        <mxCell id="eqKUxoGvrXesLs2YRMUO-59" value="&lt;div style=&quot;&quot;&gt;&lt;p style=&quot;margin: 0px; text-indent: 0px; vertical-align: middle; direction: ltr;&quot;&gt;&lt;font face=&quot;Arial&quot;&gt;&lt;span style=&quot;font-size: 11.29px;&quot;&gt;P2&lt;/span&gt;&lt;/font&gt;&lt;/p&gt;&lt;/div&gt;" style="verticalAlign=top;align=left;overflow=width;vsdxID=13;fillColor=none;gradientColor=none;shape=stencil(nZBLDoAgDERP0z3SIyjew0SURgSD+Lu9kMZoXLhwN9O+tukAlrNpJg1SzDH4QW/URgNYgZTkjA4UkwJUgGXng+6DX1zLfmoymdXo17xh5zmRJ6Q42BWCfc2oJfdAr+Yv+AP9Cb7OJ3H/2JG1HNGz/84klThPVCc=);strokeColor=none;spacingTop=-3;spacingBottom=-3;spacingLeft=-2;spacingRight=-2;points=[];labelBackgroundColor=none;rounded=0;html=1;whiteSpace=wrap;rotation=0;" parent="eqKUxoGvrXesLs2YRMUO-58" vertex="1">
          <mxGeometry x="28" width="63" height="12" as="geometry" />
        </mxCell>
        <mxCell id="eqKUxoGvrXesLs2YRMUO-60" style="vsdxID=14;fillColor=none;gradientColor=none;strokeColor=none;points=[];labelBackgroundColor=none;rounded=0;html=1;whiteSpace=wrap;rotation=-180;" parent="eqKUxoGvrXesLs2YRMUO-58" vertex="1">
          <mxGeometry y="3" width="26" height="8" as="geometry" />
        </mxCell>
        <mxCell id="eqKUxoGvrXesLs2YRMUO-61" style="vsdxID=17;fillColor=#000000;gradientColor=none;shape=stencil(nZBLDoAgDERP0z3SIyjew0SURgSD+Lu9kMZoXLhwN9O+tukAlrNpJg1SzDH4QW/URgNYgZTkjA4UkwJUgGXng+6DX1zLfmoymdXo17xh5zmRJ6Q42BWCfc2oJfdAr+Yv+AP9Cb7OJ3H/2JG1HNGz/84klThPVCc=);strokeColor=none;points=[];labelBackgroundColor=none;rounded=0;html=1;whiteSpace=wrap;rotation=-180;" parent="eqKUxoGvrXesLs2YRMUO-60" vertex="1">
          <mxGeometry x="4" width="8" height="8" as="geometry" />
        </mxCell>
        <mxCell id="eqKUxoGvrXesLs2YRMUO-62" style="vsdxID=18;fillColor=#000000;gradientColor=none;shape=stencil(vVHLDsIgEPwajiQI6RfU+h8bu22JCGRB2/69kG1iazx58DazM/vIjjBtmiCi0CplCjecbZ8nYc5Ca+snJJsLEqYTph0C4Ujh4XvmEaqzont41gkL96naodXKrGF6YSfQtUi0OXXDVlqPfJNP6usotUhYbJIUMmQb/GGrAxpRljVycDBuc1hKM2LclX8/7H9nFfB+82Cd45T2+mcspcSRmu4F);strokeColor=none;points=[];labelBackgroundColor=none;rounded=0;html=1;whiteSpace=wrap;rotation=-180;" parent="eqKUxoGvrXesLs2YRMUO-60" vertex="1">
          <mxGeometry width="8" height="8" as="geometry" />
        </mxCell>
        <mxCell id="eqKUxoGvrXesLs2YRMUO-63" value="" style="vsdxID=15;edgeStyle=none;startArrow=none;endArrow=none;startSize=5;endSize=5;strokeColor=#000000;spacingTop=0;spacingBottom=0;spacingLeft=0;spacingRight=0;verticalAlign=middle;html=1;labelBackgroundColor=none;rounded=0;" parent="eqKUxoGvrXesLs2YRMUO-60" edge="1">
          <mxGeometry relative="1" as="geometry">
            <Array as="points" />
            <mxPoint x="26" y="4" as="sourcePoint" />
            <mxPoint x="12" y="4" as="targetPoint" />
          </mxGeometry>
        </mxCell>
        <mxCell id="eqKUxoGvrXesLs2YRMUO-64" value="" style="vsdxID=16;edgeStyle=none;startArrow=none;endArrow=none;startSize=5;endSize=5;strokeColor=#000000;spacingTop=0;spacingBottom=0;spacingLeft=0;spacingRight=0;verticalAlign=middle;html=1;labelBackgroundColor=none;rounded=0;" parent="eqKUxoGvrXesLs2YRMUO-60" edge="1">
          <mxGeometry relative="1" as="geometry">
            <Array as="points" />
            <mxPoint x="26" y="6" as="sourcePoint" />
            <mxPoint x="26" y="2" as="targetPoint" />
          </mxGeometry>
        </mxCell>
        <UserObject label="" Row_1="" id="eqKUxoGvrXesLs2YRMUO-65">
          <mxCell style="vsdxID=5;fillColor=none;gradientColor=none;strokeColor=none;points=[];labelBackgroundColor=none;rounded=0;html=1;whiteSpace=wrap;" parent="1" vertex="1">
            <mxGeometry x="431" y="387.00000000000006" width="89" height="12" as="geometry" />
          </mxCell>
        </UserObject>
        <mxCell id="eqKUxoGvrXesLs2YRMUO-66" value="&lt;div style=&quot;font-size: 1px&quot;&gt;&lt;p style=&quot;text-align:right;margin-left:0;margin-right:0;margin-top:0px;margin-bottom:0px;text-indent:0;vertical-align:middle;direction:ltr;&quot;&gt;&lt;font style=&quot;font-size:11.29px;font-family:Arial;color:#000000;direction:ltr;letter-spacing:0px;line-height:120%;opacity:1&quot;&gt;N1&amp;nbsp;&lt;/font&gt;&lt;/p&gt;&lt;/div&gt;" style="verticalAlign=middle;align=right;overflow=width;vsdxID=13;fillColor=none;gradientColor=none;shape=stencil(nZBLDoAgDERP0z3SIyjew0SURgSD+Lu9kMZoXLhwN9O+tukAlrNpJg1SzDH4QW/URgNYgZTkjA4UkwJUgGXng+6DX1zLfmoymdXo17xh5zmRJ6Q42BWCfc2oJfdAr+Yv+AP9Cb7OJ3H/2JG1HNGz/84klThPVCc=);strokeColor=none;spacingTop=-3;spacingBottom=-3;spacingLeft=-2;spacingRight=-2;points=[];labelBackgroundColor=none;rounded=0;html=1;whiteSpace=wrap;" parent="eqKUxoGvrXesLs2YRMUO-65" vertex="1">
          <mxGeometry width="63" height="12" as="geometry" />
        </mxCell>
        <mxCell id="eqKUxoGvrXesLs2YRMUO-67" style="vsdxID=14;fillColor=none;gradientColor=none;strokeColor=none;points=[];labelBackgroundColor=none;rounded=0;html=1;whiteSpace=wrap;" parent="eqKUxoGvrXesLs2YRMUO-65" vertex="1">
          <mxGeometry x="63" y="2" width="26" height="8" as="geometry" />
        </mxCell>
        <mxCell id="eqKUxoGvrXesLs2YRMUO-68" style="vsdxID=17;fillColor=#000000;gradientColor=none;shape=stencil(nZBLDoAgDERP0z3SIyjew0SURgSD+Lu9kMZoXLhwN9O+tukAlrNpJg1SzDH4QW/URgNYgZTkjA4UkwJUgGXng+6DX1zLfmoymdXo17xh5zmRJ6Q42BWCfc2oJfdAr+Yv+AP9Cb7OJ3H/2JG1HNGz/84klThPVCc=);strokeColor=none;points=[];labelBackgroundColor=none;rounded=0;html=1;whiteSpace=wrap;" parent="eqKUxoGvrXesLs2YRMUO-67" vertex="1">
          <mxGeometry x="14" width="8" height="8" as="geometry" />
        </mxCell>
        <mxCell id="eqKUxoGvrXesLs2YRMUO-69" style="vsdxID=18;fillColor=#000000;gradientColor=none;shape=stencil(vVHLDsIgEPwajiQI6RfU+h8bu22JCGRB2/69kG1iazx58DazM/vIjjBtmiCi0CplCjecbZ8nYc5Ca+snJJsLEqYTph0C4Ujh4XvmEaqzont41gkL96naodXKrGF6YSfQtUi0OXXDVlqPfJNP6usotUhYbJIUMmQb/GGrAxpRljVycDBuc1hKM2LclX8/7H9nFfB+82Cd45T2+mcspcSRmu4F);strokeColor=none;points=[];labelBackgroundColor=none;rounded=0;html=1;whiteSpace=wrap;" parent="eqKUxoGvrXesLs2YRMUO-67" vertex="1">
          <mxGeometry x="18" width="8" height="8" as="geometry" />
        </mxCell>
        <mxCell id="eqKUxoGvrXesLs2YRMUO-70" value="" style="vsdxID=15;edgeStyle=none;startArrow=none;endArrow=none;startSize=5;endSize=5;strokeColor=#000000;spacingTop=0;spacingBottom=0;spacingLeft=0;spacingRight=0;verticalAlign=middle;html=1;labelBackgroundColor=none;rounded=0;" parent="eqKUxoGvrXesLs2YRMUO-67" edge="1">
          <mxGeometry relative="1" as="geometry">
            <Array as="points" />
            <mxPoint y="4" as="sourcePoint" />
            <mxPoint x="14" y="4" as="targetPoint" />
          </mxGeometry>
        </mxCell>
        <mxCell id="eqKUxoGvrXesLs2YRMUO-71" value="" style="vsdxID=16;edgeStyle=none;startArrow=none;endArrow=none;startSize=5;endSize=5;strokeColor=#000000;spacingTop=0;spacingBottom=0;spacingLeft=0;spacingRight=0;verticalAlign=middle;html=1;labelBackgroundColor=none;rounded=0;" parent="eqKUxoGvrXesLs2YRMUO-67" edge="1">
          <mxGeometry relative="1" as="geometry">
            <Array as="points" />
            <mxPoint y="2" as="sourcePoint" />
            <mxPoint y="6" as="targetPoint" />
          </mxGeometry>
        </mxCell>
        <UserObject label="" Row_1="" id="eqKUxoGvrXesLs2YRMUO-72">
          <mxCell style="vsdxID=5;fillColor=none;gradientColor=none;strokeColor=none;points=[];labelBackgroundColor=none;rounded=0;html=1;whiteSpace=wrap;" parent="1" vertex="1">
            <mxGeometry x="431" y="366.00000000000006" width="89" height="12" as="geometry" />
          </mxCell>
        </UserObject>
        <mxCell id="eqKUxoGvrXesLs2YRMUO-73" value="&lt;div style=&quot;font-size: 1px&quot;&gt;&lt;p style=&quot;text-align:right;margin-left:0;margin-right:0;margin-top:0px;margin-bottom:0px;text-indent:0;vertical-align:middle;direction:ltr;&quot;&gt;&lt;font style=&quot;font-size:11.29px;font-family:Arial;color:#000000;direction:ltr;letter-spacing:0px;line-height:120%;opacity:1&quot;&gt;N2&amp;nbsp;&lt;/font&gt;&lt;/p&gt;&lt;/div&gt;" style="verticalAlign=middle;align=right;overflow=width;vsdxID=13;fillColor=none;gradientColor=none;shape=stencil(nZBLDoAgDERP0z3SIyjew0SURgSD+Lu9kMZoXLhwN9O+tukAlrNpJg1SzDH4QW/URgNYgZTkjA4UkwJUgGXng+6DX1zLfmoymdXo17xh5zmRJ6Q42BWCfc2oJfdAr+Yv+AP9Cb7OJ3H/2JG1HNGz/84klThPVCc=);strokeColor=none;spacingTop=-3;spacingBottom=-3;spacingLeft=-2;spacingRight=-2;points=[];labelBackgroundColor=none;rounded=0;html=1;whiteSpace=wrap;" parent="eqKUxoGvrXesLs2YRMUO-72" vertex="1">
          <mxGeometry width="63" height="12" as="geometry" />
        </mxCell>
        <mxCell id="eqKUxoGvrXesLs2YRMUO-74" style="vsdxID=14;fillColor=none;gradientColor=none;strokeColor=none;points=[];labelBackgroundColor=none;rounded=0;html=1;whiteSpace=wrap;" parent="eqKUxoGvrXesLs2YRMUO-72" vertex="1">
          <mxGeometry x="63" y="2" width="26" height="8" as="geometry" />
        </mxCell>
        <mxCell id="eqKUxoGvrXesLs2YRMUO-75" style="vsdxID=17;fillColor=#000000;gradientColor=none;shape=stencil(nZBLDoAgDERP0z3SIyjew0SURgSD+Lu9kMZoXLhwN9O+tukAlrNpJg1SzDH4QW/URgNYgZTkjA4UkwJUgGXng+6DX1zLfmoymdXo17xh5zmRJ6Q42BWCfc2oJfdAr+Yv+AP9Cb7OJ3H/2JG1HNGz/84klThPVCc=);strokeColor=none;points=[];labelBackgroundColor=none;rounded=0;html=1;whiteSpace=wrap;" parent="eqKUxoGvrXesLs2YRMUO-74" vertex="1">
          <mxGeometry x="14" width="8" height="8" as="geometry" />
        </mxCell>
        <mxCell id="eqKUxoGvrXesLs2YRMUO-76" style="vsdxID=18;fillColor=#000000;gradientColor=none;shape=stencil(vVHLDsIgEPwajiQI6RfU+h8bu22JCGRB2/69kG1iazx58DazM/vIjjBtmiCi0CplCjecbZ8nYc5Ca+snJJsLEqYTph0C4Ujh4XvmEaqzont41gkL96naodXKrGF6YSfQtUi0OXXDVlqPfJNP6usotUhYbJIUMmQb/GGrAxpRljVycDBuc1hKM2LclX8/7H9nFfB+82Cd45T2+mcspcSRmu4F);strokeColor=none;points=[];labelBackgroundColor=none;rounded=0;html=1;whiteSpace=wrap;" parent="eqKUxoGvrXesLs2YRMUO-74" vertex="1">
          <mxGeometry x="18" width="8" height="8" as="geometry" />
        </mxCell>
        <mxCell id="eqKUxoGvrXesLs2YRMUO-77" value="" style="vsdxID=15;edgeStyle=none;startArrow=none;endArrow=none;startSize=5;endSize=5;strokeColor=#000000;spacingTop=0;spacingBottom=0;spacingLeft=0;spacingRight=0;verticalAlign=middle;html=1;labelBackgroundColor=none;rounded=0;" parent="eqKUxoGvrXesLs2YRMUO-74" edge="1">
          <mxGeometry relative="1" as="geometry">
            <Array as="points" />
            <mxPoint y="4" as="sourcePoint" />
            <mxPoint x="14" y="4" as="targetPoint" />
          </mxGeometry>
        </mxCell>
        <mxCell id="eqKUxoGvrXesLs2YRMUO-78" value="" style="vsdxID=16;edgeStyle=none;startArrow=none;endArrow=none;startSize=5;endSize=5;strokeColor=#000000;spacingTop=0;spacingBottom=0;spacingLeft=0;spacingRight=0;verticalAlign=middle;html=1;labelBackgroundColor=none;rounded=0;" parent="eqKUxoGvrXesLs2YRMUO-74" edge="1">
          <mxGeometry relative="1" as="geometry">
            <Array as="points" />
            <mxPoint y="2" as="sourcePoint" />
            <mxPoint y="6" as="targetPoint" />
          </mxGeometry>
        </mxCell>
        <mxCell id="eqKUxoGvrXesLs2YRMUO-82" style="vsdxID=5;fillColor=none;gradientColor=none;strokeColor=none;flipV=1;points=[];labelBackgroundColor=none;rounded=0;html=1;whiteSpace=wrap;rotation=-180;" parent="1" vertex="1">
          <mxGeometry x="548" y="388" width="12" height="12" as="geometry" />
        </mxCell>
        <mxCell id="eqKUxoGvrXesLs2YRMUO-83" style="vsdxID=6;rotation=-90;fillColor=#000000;gradientColor=none;shape=stencil(jZBLDoAgDERP0z3SIyjew0SURgSD+Lu9kMb4Wbmb6bw2bQHL2TSTBinmGPygN2qjAaxASnJGB4pJASrAsvNB98EvrmU/NZnMavRrnrBzn8gdUhzsCsG+ZtSSe6BX+At+o7/Bz8wk7sU7spbvfubfQ1OJn4TqBA==);strokeColor=#000000;flipV=1;points=[];labelBackgroundColor=none;rounded=0;html=1;whiteSpace=wrap;" parent="eqKUxoGvrXesLs2YRMUO-82" vertex="1">
          <mxGeometry x="4" y="4" width="8" height="8" as="geometry" />
        </mxCell>
        <mxCell id="eqKUxoGvrXesLs2YRMUO-84" value="" style="vsdxID=7;edgeStyle=none;startArrow=none;endArrow=none;startSize=5;endSize=5;strokeColor=#000000;spacingTop=0;spacingBottom=0;spacingLeft=0;spacingRight=0;verticalAlign=middle;html=1;labelBackgroundColor=none;rounded=0;" parent="eqKUxoGvrXesLs2YRMUO-82" edge="1">
          <mxGeometry relative="1" as="geometry">
            <Array as="points" />
            <mxPoint y="12" as="sourcePoint" />
            <mxPoint as="targetPoint" />
          </mxGeometry>
        </mxCell>
        <UserObject label="&lt;div style=&quot;font-size: 1px&quot;&gt;&lt;font style=&quot;font-size:7.06px;font-family:Arial;color:#000000;direction:ltr;letter-spacing:0px;line-height:120%;opacity:1&quot;&gt;W1&lt;/font&gt;&lt;/div&gt;" Row_1="" id="eqKUxoGvrXesLs2YRMUO-85">
          <mxCell style="verticalAlign=middle;align=center;overflow=width;vsdxID=5;fillColor=none;gradientColor=none;shape=stencil(nZBLDoAgDERP0z3SIyjew0SURgSD+Lu9kMZoXLhwN9O+tukAlrNpJg1SzDH4QW/URgNYgZTkjA4UkwJUgGXng+6DX1zLfmoymdXo17xh5zmRJ6Q42BWCfc2oJfdAr+Yv+AP9Cb7OJ3H/2JG1HNGz/84klThPVCc=);strokeColor=none;spacingTop=-3;spacingBottom=-3;spacingLeft=-3;spacingRight=-3;points=[];labelBackgroundColor=none;rounded=0;html=1;whiteSpace=wrap;" parent="1" vertex="1">
            <mxGeometry x="276" y="402" width="24" height="8" as="geometry" />
          </mxCell>
        </UserObject>
        <UserObject label="&lt;div style=&quot;font-size: 1px&quot;&gt;&lt;font style=&quot;font-size:7.06px;font-family:Arial;color:#000000;direction:ltr;letter-spacing:0px;line-height:120%;opacity:1&quot;&gt;W2&lt;/font&gt;&lt;/div&gt;" Row_1="" id="eqKUxoGvrXesLs2YRMUO-86">
          <mxCell style="verticalAlign=middle;align=center;overflow=width;vsdxID=5;fillColor=none;gradientColor=none;shape=stencil(nZBLDoAgDERP0z3SIyjew0SURgSD+Lu9kMZoXLhwN9O+tukAlrNpJg1SzDH4QW/URgNYgZTkjA4UkwJUgGXng+6DX1zLfmoymdXo17xh5zmRJ6Q42BWCfc2oJfdAr+Yv+AP9Cb7OJ3H/2JG1HNGz/84klThPVCc=);strokeColor=none;spacingTop=-3;spacingBottom=-3;spacingLeft=-3;spacingRight=-3;points=[];labelBackgroundColor=none;rounded=0;html=1;whiteSpace=wrap;" parent="1" vertex="1">
            <mxGeometry x="543" y="402" width="24" height="8" as="geometry" />
          </mxCell>
        </UserObject>
        <mxCell id="eqKUxoGvrXesLs2YRMUO-96" value="" style="group" parent="1" vertex="1" connectable="0">
          <mxGeometry x="576" y="387" width="90" height="12" as="geometry" />
        </mxCell>
        <mxCell id="eqKUxoGvrXesLs2YRMUO-89" value="&lt;div style=&quot;font-size: 1px&quot;&gt;&lt;p style=&quot;margin: 0px; text-indent: 0px; vertical-align: middle; direction: ltr;&quot;&gt;&lt;font style=&quot;font-size:11.29px;font-family:Arial;color:#000000;direction:ltr;letter-spacing:0px;line-height:120%;opacity:1&quot;&gt;F&lt;/font&gt;&lt;/p&gt;&lt;/div&gt;" style="verticalAlign=middle;align=left;overflow=width;vsdxID=13;fillColor=none;gradientColor=none;shape=stencil(nZBLDoAgDERP0z3SIyjew0SURgSD+Lu9kMZoXLhwN9O+tukAlrNpJg1SzDH4QW/URgNYgZTkjA4UkwJUgGXng+6DX1zLfmoymdXo17xh5zmRJ6Q42BWCfc2oJfdAr+Yv+AP9Cb7OJ3H/2JG1HNGz/84klThPVCc=);strokeColor=none;spacingTop=-3;spacingBottom=-3;spacingLeft=-2;spacingRight=-2;points=[];labelBackgroundColor=none;rounded=0;html=1;whiteSpace=wrap;rotation=0;" parent="eqKUxoGvrXesLs2YRMUO-96" vertex="1">
          <mxGeometry x="27" width="63" height="12" as="geometry" />
        </mxCell>
        <mxCell id="eqKUxoGvrXesLs2YRMUO-90" style="vsdxID=5;fillColor=none;gradientColor=none;strokeColor=none;points=[];labelBackgroundColor=none;rounded=0;html=1;whiteSpace=wrap;rotation=-180;" parent="eqKUxoGvrXesLs2YRMUO-96" vertex="1">
          <mxGeometry y="2" width="26" height="8" as="geometry" />
        </mxCell>
        <mxCell id="eqKUxoGvrXesLs2YRMUO-91" style="vsdxID=15;fillColor=#000000;gradientColor=none;shape=stencil(nZBLDoAgDERP0z3SIyjew0SURgSD+Lu9kMZoXLhwN9O+tukAlrNpJg1SzDH4QW/URgNYgZTkjA4UkwJUgGXng+6DX1zLfmoymdXo17xh5zmRJ6Q42BWCfc2oJfdAr+Yv+AP9Cb7OJ3H/2JG1HNGz/84klThPVCc=);strokeColor=none;points=[];labelBackgroundColor=none;rounded=0;html=1;whiteSpace=wrap;rotation=-180;" parent="eqKUxoGvrXesLs2YRMUO-90" vertex="1">
          <mxGeometry x="4" width="8" height="8" as="geometry" />
        </mxCell>
        <mxCell id="eqKUxoGvrXesLs2YRMUO-92" style="vsdxID=16;fillColor=#000000;gradientColor=none;shape=stencil(vVHLDsIgEPwajiQI6RfU+h8bu22JCGRB2/69kG1iazx58DazM/vIjjBtmiCi0CplCjecbZ8nYc5Ca+snJJsLEqYTph0C4Ujh4XvmEaqzont41gkL96naodXKrGF6YSfQtUi0OXXDVlqPfJNP6usotUhYbJIUMmQb/GGrAxpRljVycDBuc1hKM2LclX8/7H9nFfB+82Cd45T2+mcspcSRmu4F);strokeColor=none;points=[];labelBackgroundColor=none;rounded=0;html=1;whiteSpace=wrap;rotation=-180;" parent="eqKUxoGvrXesLs2YRMUO-90" vertex="1">
          <mxGeometry width="8" height="8" as="geometry" />
        </mxCell>
        <mxCell id="eqKUxoGvrXesLs2YRMUO-93" style="vsdxID=17;fillColor=#000000;gradientColor=none;shape=stencil(vVHLDsIgEPwajiQI6RfU+h8bu22JCGRB2/69kG1iazx58DazM/vIjjBtmiCi0CplCjecbZ8nYc5Ca+snJJsLEqYTph0C4Ujh4XvmEaqzont41gkL96naodXKrGF6YSfQtUi0OXXDVlqPfJNP6usotUhYbJIUMmQb/GGrAxpRljVycDBuc1hKM2LclX8/7H9nFfB+82Cd45T2+mcspcSRmu4F);strokeColor=none;points=[];labelBackgroundColor=none;rounded=0;html=1;whiteSpace=wrap;rotation=-180;" parent="eqKUxoGvrXesLs2YRMUO-90" vertex="1">
          <mxGeometry x="8" width="8" height="8" as="geometry" />
        </mxCell>
        <mxCell id="eqKUxoGvrXesLs2YRMUO-94" value="" style="vsdxID=6;edgeStyle=none;startArrow=none;endArrow=none;startSize=5;endSize=5;strokeColor=#000000;spacingTop=0;spacingBottom=0;spacingLeft=0;spacingRight=0;verticalAlign=middle;html=1;labelBackgroundColor=none;rounded=0;" parent="eqKUxoGvrXesLs2YRMUO-90" edge="1">
          <mxGeometry relative="1" as="geometry">
            <Array as="points" />
            <mxPoint x="26" y="4" as="sourcePoint" />
            <mxPoint x="12" y="4" as="targetPoint" />
          </mxGeometry>
        </mxCell>
        <mxCell id="eqKUxoGvrXesLs2YRMUO-95" value="" style="vsdxID=14;edgeStyle=none;startArrow=none;endArrow=none;startSize=5;endSize=5;strokeColor=#000000;spacingTop=0;spacingBottom=0;spacingLeft=0;spacingRight=0;verticalAlign=middle;html=1;labelBackgroundColor=none;rounded=0;" parent="eqKUxoGvrXesLs2YRMUO-90" edge="1">
          <mxGeometry relative="1" as="geometry">
            <Array as="points" />
            <mxPoint x="26" y="6" as="sourcePoint" />
            <mxPoint x="26" y="2" as="targetPoint" />
          </mxGeometry>
        </mxCell>
        <mxCell id="eqKUxoGvrXesLs2YRMUO-1" style="vsdxID=5;edgeStyle=none;startArrow=none;endArrow=none;startSize=5;endSize=5;strokeWidth=2;strokeColor=#000000;spacingTop=0;spacingBottom=0;spacingLeft=0;spacingRight=0;verticalAlign=middle;html=1;labelBackgroundColor=none;rounded=0;" parent="1" edge="1">
          <mxGeometry y="-1118" relative="1" as="geometry">
            <mxPoint y="-1118" as="offset" />
            <Array as="points" />
            <mxPoint x="227" y="400" as="sourcePoint" />
            <mxPoint x="620" y="400" as="targetPoint" />
          </mxGeometry>
        </mxCell>
        <mxCell id="eqKUxoGvrXesLs2YRMUO-97" style="vsdxID=5;edgeStyle=none;startArrow=none;endArrow=none;startSize=5;endSize=5;strokeWidth=2;strokeColor=#FF0000;spacingTop=0;spacingBottom=0;spacingLeft=0;spacingRight=0;verticalAlign=middle;html=1;labelBackgroundColor=none;rounded=0;exitX=0.125;exitY=-0.349;exitDx=0;exitDy=0;exitPerimeter=0;" parent="1" source="eqKUxoGvrXesLs2YRMUO-85" edge="1">
          <mxGeometry y="-1118" relative="1" as="geometry">
            <mxPoint y="-1118" as="offset" />
            <Array as="points">
              <mxPoint x="300" y="380" />
            </Array>
            <mxPoint x="300" y="280" as="sourcePoint" />
            <mxPoint x="420" y="380" as="targetPoint" />
          </mxGeometry>
        </mxCell>
        <mxCell id="eqKUxoGvrXesLs2YRMUO-98" style="vsdxID=5;edgeStyle=none;startArrow=none;endArrow=none;startSize=5;endSize=5;strokeWidth=2;strokeColor=#00CC00;spacingTop=0;spacingBottom=0;spacingLeft=0;spacingRight=0;verticalAlign=middle;html=1;labelBackgroundColor=none;rounded=0;" parent="1" edge="1">
          <mxGeometry y="-1118" relative="1" as="geometry">
            <mxPoint y="-1118" as="offset" />
            <Array as="points" />
            <mxPoint x="227" y="400" as="sourcePoint" />
            <mxPoint x="420" y="400" as="targetPoint" />
          </mxGeometry>
        </mxCell>
      </root>
    </mxGraphModel>
  </diagram>
  <diagram id="x0rFrvNdZliPqoarrkdl" name="Mit Flankenschutz">
    <mxGraphModel dx="350" dy="234" grid="1" gridSize="10" guides="1" tooltips="1" connect="1" arrows="1" fold="1" page="0" pageScale="1" pageWidth="827" pageHeight="1169" math="0" shadow="0">
      <root>
        <mxCell id="0" />
        <mxCell id="1" parent="0" />
        <mxCell id="nOXjQ-CjKXy307Vtb0PH-1" style="vsdxID=5;edgeStyle=none;startArrow=none;endArrow=none;startSize=5;endSize=5;strokeWidth=2;strokeColor=#000000;spacingTop=0;spacingBottom=0;spacingLeft=0;spacingRight=0;verticalAlign=middle;html=1;labelBackgroundColor=none;rounded=0;exitX=1.028;exitY=0.014;exitDx=0;exitDy=0;exitPerimeter=0;" parent="1" source="nOXjQ-CjKXy307Vtb0PH-2" edge="1">
          <mxGeometry y="-1118" relative="1" as="geometry">
            <mxPoint y="-1118" as="offset" />
            <Array as="points">
              <mxPoint x="300" y="380" />
              <mxPoint x="540" y="380" />
            </Array>
            <mxPoint x="270" y="388" as="sourcePoint" />
            <mxPoint x="560" y="400" as="targetPoint" />
          </mxGeometry>
        </mxCell>
        <mxCell id="nOXjQ-CjKXy307Vtb0PH-2" style="vsdxID=5;fillColor=none;gradientColor=none;strokeColor=none;points=[];labelBackgroundColor=none;rounded=0;html=1;whiteSpace=wrap;rotation=-180;" parent="1" vertex="1">
          <mxGeometry x="280" y="388" width="12" height="12" as="geometry" />
        </mxCell>
        <mxCell id="nOXjQ-CjKXy307Vtb0PH-3" style="vsdxID=6;rotation=90;fillColor=#000000;gradientColor=none;shape=stencil(jZBLDoAgDERP0z3SIyjew0SURgSD+Lu9kMb4Wbmb6bw2bQHL2TSTBinmGPygN2qjAaxASnJGB4pJASrAsvNB98EvrmU/NZnMavRrnrBzn8gdUhzsCsG+ZtSSe6BX+At+o7/Bz8wk7sU7spbvfubfQ1OJn4TqBA==);strokeColor=#000000;flipH=1;flipV=1;points=[];labelBackgroundColor=none;rounded=0;html=1;whiteSpace=wrap;" parent="nOXjQ-CjKXy307Vtb0PH-2" vertex="1">
          <mxGeometry y="4" width="8" height="8" as="geometry" />
        </mxCell>
        <mxCell id="nOXjQ-CjKXy307Vtb0PH-4" value="" style="vsdxID=7;edgeStyle=none;startArrow=none;endArrow=none;startSize=5;endSize=5;strokeColor=#000000;spacingTop=0;spacingBottom=0;spacingLeft=0;spacingRight=0;verticalAlign=middle;html=1;labelBackgroundColor=none;rounded=0;" parent="nOXjQ-CjKXy307Vtb0PH-2" edge="1">
          <mxGeometry relative="1" as="geometry">
            <Array as="points" />
            <mxPoint x="12" y="12" as="sourcePoint" />
            <mxPoint x="12" as="targetPoint" />
          </mxGeometry>
        </mxCell>
        <UserObject label="" Row_1="" id="nOXjQ-CjKXy307Vtb0PH-5">
          <mxCell style="vsdxID=18;fillColor=none;gradientColor=none;strokeColor=none;points=[];labelBackgroundColor=none;rounded=0;html=1;whiteSpace=wrap;" parent="1" vertex="1">
            <mxGeometry x="180" y="401" width="90" height="12" as="geometry" />
          </mxCell>
        </UserObject>
        <mxCell id="nOXjQ-CjKXy307Vtb0PH-6" value="&lt;div style=&quot;font-size: 1px&quot;&gt;&lt;p style=&quot;text-align:right;margin-left:0;margin-right:0;margin-top:0px;margin-bottom:0px;text-indent:0;vertical-align:middle;direction:ltr;&quot;&gt;&lt;font style=&quot;font-size:11.29px;font-family:Arial;color:#000000;direction:ltr;letter-spacing:0px;line-height:120%;opacity:1&quot;&gt;&lt;br/&gt;&lt;/font&gt;&lt;/p&gt;&lt;/div&gt;" style="verticalAlign=middle;align=right;overflow=width;vsdxID=12;fillColor=none;gradientColor=none;strokeColor=none;spacingTop=-3;spacingBottom=-3;spacingLeft=-3;spacingRight=-1;points=[];labelBackgroundColor=none;rounded=0;html=1;whiteSpace=wrap;" parent="nOXjQ-CjKXy307Vtb0PH-5" vertex="1">
          <mxGeometry x="35" width="28" height="12" as="geometry" />
        </mxCell>
        <mxCell id="nOXjQ-CjKXy307Vtb0PH-7" value="&lt;div style=&quot;font-size: 1px&quot;&gt;&lt;p style=&quot;text-align:right;margin-left:0;margin-right:0;margin-top:0px;margin-bottom:0px;text-indent:0;vertical-align:middle;direction:ltr;&quot;&gt;&lt;font style=&quot;font-size:11.29px;font-family:Arial;color:#000000;direction:ltr;letter-spacing:0px;line-height:120%;opacity:1&quot;&gt;A&lt;/font&gt;&lt;/p&gt;&lt;/div&gt;" style="verticalAlign=middle;align=right;overflow=width;vsdxID=13;fillColor=none;gradientColor=none;shape=stencil(nZBLDoAgDERP0z3SIyjew0SURgSD+Lu9kMZoXLhwN9O+tukAlrNpJg1SzDH4QW/URgNYgZTkjA4UkwJUgGXng+6DX1zLfmoymdXo17xh5zmRJ6Q42BWCfc2oJfdAr+Yv+AP9Cb7OJ3H/2JG1HNGz/84klThPVCc=);strokeColor=none;spacingTop=-3;spacingBottom=-3;spacingLeft=-2;spacingRight=-2;points=[];labelBackgroundColor=none;rounded=0;html=1;whiteSpace=wrap;" parent="nOXjQ-CjKXy307Vtb0PH-5" vertex="1">
          <mxGeometry width="63" height="12" as="geometry" />
        </mxCell>
        <mxCell id="nOXjQ-CjKXy307Vtb0PH-8" style="vsdxID=5;fillColor=none;gradientColor=none;strokeColor=none;points=[];labelBackgroundColor=none;rounded=0;html=1;whiteSpace=wrap;" parent="nOXjQ-CjKXy307Vtb0PH-5" vertex="1">
          <mxGeometry x="64" y="2" width="26" height="8" as="geometry" />
        </mxCell>
        <mxCell id="nOXjQ-CjKXy307Vtb0PH-9" style="vsdxID=15;fillColor=#000000;gradientColor=none;shape=stencil(nZBLDoAgDERP0z3SIyjew0SURgSD+Lu9kMZoXLhwN9O+tukAlrNpJg1SzDH4QW/URgNYgZTkjA4UkwJUgGXng+6DX1zLfmoymdXo17xh5zmRJ6Q42BWCfc2oJfdAr+Yv+AP9Cb7OJ3H/2JG1HNGz/84klThPVCc=);strokeColor=none;points=[];labelBackgroundColor=none;rounded=0;html=1;whiteSpace=wrap;" parent="nOXjQ-CjKXy307Vtb0PH-8" vertex="1">
          <mxGeometry x="14" width="8" height="8" as="geometry" />
        </mxCell>
        <mxCell id="nOXjQ-CjKXy307Vtb0PH-10" style="vsdxID=16;fillColor=#000000;gradientColor=none;shape=stencil(vVHLDsIgEPwajiQI6RfU+h8bu22JCGRB2/69kG1iazx58DazM/vIjjBtmiCi0CplCjecbZ8nYc5Ca+snJJsLEqYTph0C4Ujh4XvmEaqzont41gkL96naodXKrGF6YSfQtUi0OXXDVlqPfJNP6usotUhYbJIUMmQb/GGrAxpRljVycDBuc1hKM2LclX8/7H9nFfB+82Cd45T2+mcspcSRmu4F);strokeColor=none;points=[];labelBackgroundColor=none;rounded=0;html=1;whiteSpace=wrap;" parent="nOXjQ-CjKXy307Vtb0PH-8" vertex="1">
          <mxGeometry x="18" width="8" height="8" as="geometry" />
        </mxCell>
        <mxCell id="nOXjQ-CjKXy307Vtb0PH-11" style="vsdxID=17;fillColor=#000000;gradientColor=none;shape=stencil(vVHLDsIgEPwajiQI6RfU+h8bu22JCGRB2/69kG1iazx58DazM/vIjjBtmiCi0CplCjecbZ8nYc5Ca+snJJsLEqYTph0C4Ujh4XvmEaqzont41gkL96naodXKrGF6YSfQtUi0OXXDVlqPfJNP6usotUhYbJIUMmQb/GGrAxpRljVycDBuc1hKM2LclX8/7H9nFfB+82Cd45T2+mcspcSRmu4F);strokeColor=none;points=[];labelBackgroundColor=none;rounded=0;html=1;whiteSpace=wrap;" parent="nOXjQ-CjKXy307Vtb0PH-8" vertex="1">
          <mxGeometry x="10" width="8" height="8" as="geometry" />
        </mxCell>
        <mxCell id="nOXjQ-CjKXy307Vtb0PH-12" value="" style="vsdxID=6;edgeStyle=none;startArrow=none;endArrow=none;startSize=5;endSize=5;strokeColor=#000000;spacingTop=0;spacingBottom=0;spacingLeft=0;spacingRight=0;verticalAlign=middle;html=1;labelBackgroundColor=none;rounded=0;" parent="nOXjQ-CjKXy307Vtb0PH-8" edge="1">
          <mxGeometry relative="1" as="geometry">
            <Array as="points" />
            <mxPoint y="4" as="sourcePoint" />
            <mxPoint x="14" y="4" as="targetPoint" />
          </mxGeometry>
        </mxCell>
        <mxCell id="nOXjQ-CjKXy307Vtb0PH-13" value="" style="vsdxID=14;edgeStyle=none;startArrow=none;endArrow=none;startSize=5;endSize=5;strokeColor=#000000;spacingTop=0;spacingBottom=0;spacingLeft=0;spacingRight=0;verticalAlign=middle;html=1;labelBackgroundColor=none;rounded=0;" parent="nOXjQ-CjKXy307Vtb0PH-8" edge="1">
          <mxGeometry relative="1" as="geometry">
            <Array as="points" />
            <mxPoint y="2" as="sourcePoint" />
            <mxPoint y="6" as="targetPoint" />
          </mxGeometry>
        </mxCell>
        <mxCell id="nOXjQ-CjKXy307Vtb0PH-14" value="" style="group" parent="1" vertex="1" connectable="0">
          <mxGeometry x="320" y="386.00000000000006" width="91" height="12" as="geometry" />
        </mxCell>
        <mxCell id="nOXjQ-CjKXy307Vtb0PH-15" value="&lt;div style=&quot;&quot;&gt;&lt;p style=&quot;margin: 0px; text-indent: 0px; vertical-align: middle; direction: ltr;&quot;&gt;&lt;font face=&quot;Arial&quot;&gt;&lt;span style=&quot;font-size: 11.29px;&quot;&gt;P1&lt;/span&gt;&lt;/font&gt;&lt;/p&gt;&lt;/div&gt;" style="verticalAlign=top;align=left;overflow=width;vsdxID=13;fillColor=none;gradientColor=none;shape=stencil(nZBLDoAgDERP0z3SIyjew0SURgSD+Lu9kMZoXLhwN9O+tukAlrNpJg1SzDH4QW/URgNYgZTkjA4UkwJUgGXng+6DX1zLfmoymdXo17xh5zmRJ6Q42BWCfc2oJfdAr+Yv+AP9Cb7OJ3H/2JG1HNGz/84klThPVCc=);strokeColor=none;spacingTop=-3;spacingBottom=-3;spacingLeft=-2;spacingRight=-2;points=[];labelBackgroundColor=none;rounded=0;html=1;whiteSpace=wrap;rotation=0;" parent="nOXjQ-CjKXy307Vtb0PH-14" vertex="1">
          <mxGeometry x="28" width="63" height="12" as="geometry" />
        </mxCell>
        <mxCell id="nOXjQ-CjKXy307Vtb0PH-16" style="vsdxID=14;fillColor=none;gradientColor=none;strokeColor=none;points=[];labelBackgroundColor=none;rounded=0;html=1;whiteSpace=wrap;rotation=-180;" parent="nOXjQ-CjKXy307Vtb0PH-14" vertex="1">
          <mxGeometry y="3" width="26" height="8" as="geometry" />
        </mxCell>
        <mxCell id="nOXjQ-CjKXy307Vtb0PH-17" style="vsdxID=17;fillColor=#000000;gradientColor=none;shape=stencil(nZBLDoAgDERP0z3SIyjew0SURgSD+Lu9kMZoXLhwN9O+tukAlrNpJg1SzDH4QW/URgNYgZTkjA4UkwJUgGXng+6DX1zLfmoymdXo17xh5zmRJ6Q42BWCfc2oJfdAr+Yv+AP9Cb7OJ3H/2JG1HNGz/84klThPVCc=);strokeColor=none;points=[];labelBackgroundColor=none;rounded=0;html=1;whiteSpace=wrap;rotation=-180;" parent="nOXjQ-CjKXy307Vtb0PH-16" vertex="1">
          <mxGeometry x="4" width="8" height="8" as="geometry" />
        </mxCell>
        <mxCell id="nOXjQ-CjKXy307Vtb0PH-18" style="vsdxID=18;fillColor=#000000;gradientColor=none;shape=stencil(vVHLDsIgEPwajiQI6RfU+h8bu22JCGRB2/69kG1iazx58DazM/vIjjBtmiCi0CplCjecbZ8nYc5Ca+snJJsLEqYTph0C4Ujh4XvmEaqzont41gkL96naodXKrGF6YSfQtUi0OXXDVlqPfJNP6usotUhYbJIUMmQb/GGrAxpRljVycDBuc1hKM2LclX8/7H9nFfB+82Cd45T2+mcspcSRmu4F);strokeColor=none;points=[];labelBackgroundColor=none;rounded=0;html=1;whiteSpace=wrap;rotation=-180;" parent="nOXjQ-CjKXy307Vtb0PH-16" vertex="1">
          <mxGeometry width="8" height="8" as="geometry" />
        </mxCell>
        <mxCell id="nOXjQ-CjKXy307Vtb0PH-19" value="" style="vsdxID=15;edgeStyle=none;startArrow=none;endArrow=none;startSize=5;endSize=5;strokeColor=#000000;spacingTop=0;spacingBottom=0;spacingLeft=0;spacingRight=0;verticalAlign=middle;html=1;labelBackgroundColor=none;rounded=0;" parent="nOXjQ-CjKXy307Vtb0PH-16" edge="1">
          <mxGeometry relative="1" as="geometry">
            <Array as="points" />
            <mxPoint x="26" y="4" as="sourcePoint" />
            <mxPoint x="12" y="4" as="targetPoint" />
          </mxGeometry>
        </mxCell>
        <mxCell id="nOXjQ-CjKXy307Vtb0PH-20" value="" style="vsdxID=16;edgeStyle=none;startArrow=none;endArrow=none;startSize=5;endSize=5;strokeColor=#000000;spacingTop=0;spacingBottom=0;spacingLeft=0;spacingRight=0;verticalAlign=middle;html=1;labelBackgroundColor=none;rounded=0;" parent="nOXjQ-CjKXy307Vtb0PH-16" edge="1">
          <mxGeometry relative="1" as="geometry">
            <Array as="points" />
            <mxPoint x="26" y="6" as="sourcePoint" />
            <mxPoint x="26" y="2" as="targetPoint" />
          </mxGeometry>
        </mxCell>
        <mxCell id="nOXjQ-CjKXy307Vtb0PH-21" value="" style="group" parent="1" vertex="1" connectable="0">
          <mxGeometry x="320" y="366.00000000000006" width="91" height="12" as="geometry" />
        </mxCell>
        <mxCell id="nOXjQ-CjKXy307Vtb0PH-22" value="&lt;div style=&quot;&quot;&gt;&lt;p style=&quot;margin: 0px; text-indent: 0px; vertical-align: middle; direction: ltr;&quot;&gt;&lt;font face=&quot;Arial&quot;&gt;&lt;span style=&quot;font-size: 11.29px;&quot;&gt;P2&lt;/span&gt;&lt;/font&gt;&lt;/p&gt;&lt;/div&gt;" style="verticalAlign=top;align=left;overflow=width;vsdxID=13;fillColor=none;gradientColor=none;shape=stencil(nZBLDoAgDERP0z3SIyjew0SURgSD+Lu9kMZoXLhwN9O+tukAlrNpJg1SzDH4QW/URgNYgZTkjA4UkwJUgGXng+6DX1zLfmoymdXo17xh5zmRJ6Q42BWCfc2oJfdAr+Yv+AP9Cb7OJ3H/2JG1HNGz/84klThPVCc=);strokeColor=none;spacingTop=-3;spacingBottom=-3;spacingLeft=-2;spacingRight=-2;points=[];labelBackgroundColor=none;rounded=0;html=1;whiteSpace=wrap;rotation=0;" parent="nOXjQ-CjKXy307Vtb0PH-21" vertex="1">
          <mxGeometry x="28" width="63" height="12" as="geometry" />
        </mxCell>
        <mxCell id="nOXjQ-CjKXy307Vtb0PH-23" style="vsdxID=14;fillColor=none;gradientColor=none;strokeColor=none;points=[];labelBackgroundColor=none;rounded=0;html=1;whiteSpace=wrap;rotation=-180;" parent="nOXjQ-CjKXy307Vtb0PH-21" vertex="1">
          <mxGeometry y="3" width="26" height="8" as="geometry" />
        </mxCell>
        <mxCell id="nOXjQ-CjKXy307Vtb0PH-24" style="vsdxID=17;fillColor=#000000;gradientColor=none;shape=stencil(nZBLDoAgDERP0z3SIyjew0SURgSD+Lu9kMZoXLhwN9O+tukAlrNpJg1SzDH4QW/URgNYgZTkjA4UkwJUgGXng+6DX1zLfmoymdXo17xh5zmRJ6Q42BWCfc2oJfdAr+Yv+AP9Cb7OJ3H/2JG1HNGz/84klThPVCc=);strokeColor=none;points=[];labelBackgroundColor=none;rounded=0;html=1;whiteSpace=wrap;rotation=-180;" parent="nOXjQ-CjKXy307Vtb0PH-23" vertex="1">
          <mxGeometry x="4" width="8" height="8" as="geometry" />
        </mxCell>
        <mxCell id="nOXjQ-CjKXy307Vtb0PH-25" style="vsdxID=18;fillColor=#000000;gradientColor=none;shape=stencil(vVHLDsIgEPwajiQI6RfU+h8bu22JCGRB2/69kG1iazx58DazM/vIjjBtmiCi0CplCjecbZ8nYc5Ca+snJJsLEqYTph0C4Ujh4XvmEaqzont41gkL96naodXKrGF6YSfQtUi0OXXDVlqPfJNP6usotUhYbJIUMmQb/GGrAxpRljVycDBuc1hKM2LclX8/7H9nFfB+82Cd45T2+mcspcSRmu4F);strokeColor=none;points=[];labelBackgroundColor=none;rounded=0;html=1;whiteSpace=wrap;rotation=-180;" parent="nOXjQ-CjKXy307Vtb0PH-23" vertex="1">
          <mxGeometry width="8" height="8" as="geometry" />
        </mxCell>
        <mxCell id="nOXjQ-CjKXy307Vtb0PH-26" value="" style="vsdxID=15;edgeStyle=none;startArrow=none;endArrow=none;startSize=5;endSize=5;strokeColor=#000000;spacingTop=0;spacingBottom=0;spacingLeft=0;spacingRight=0;verticalAlign=middle;html=1;labelBackgroundColor=none;rounded=0;" parent="nOXjQ-CjKXy307Vtb0PH-23" edge="1">
          <mxGeometry relative="1" as="geometry">
            <Array as="points" />
            <mxPoint x="26" y="4" as="sourcePoint" />
            <mxPoint x="12" y="4" as="targetPoint" />
          </mxGeometry>
        </mxCell>
        <mxCell id="nOXjQ-CjKXy307Vtb0PH-27" value="" style="vsdxID=16;edgeStyle=none;startArrow=none;endArrow=none;startSize=5;endSize=5;strokeColor=#000000;spacingTop=0;spacingBottom=0;spacingLeft=0;spacingRight=0;verticalAlign=middle;html=1;labelBackgroundColor=none;rounded=0;" parent="nOXjQ-CjKXy307Vtb0PH-23" edge="1">
          <mxGeometry relative="1" as="geometry">
            <Array as="points" />
            <mxPoint x="26" y="6" as="sourcePoint" />
            <mxPoint x="26" y="2" as="targetPoint" />
          </mxGeometry>
        </mxCell>
        <UserObject label="" Row_1="" id="nOXjQ-CjKXy307Vtb0PH-28">
          <mxCell style="vsdxID=5;fillColor=none;gradientColor=none;strokeColor=none;points=[];labelBackgroundColor=none;rounded=0;html=1;whiteSpace=wrap;" parent="1" vertex="1">
            <mxGeometry x="431" y="387.00000000000006" width="89" height="12" as="geometry" />
          </mxCell>
        </UserObject>
        <mxCell id="nOXjQ-CjKXy307Vtb0PH-29" value="&lt;div style=&quot;font-size: 1px&quot;&gt;&lt;p style=&quot;text-align:right;margin-left:0;margin-right:0;margin-top:0px;margin-bottom:0px;text-indent:0;vertical-align:middle;direction:ltr;&quot;&gt;&lt;font style=&quot;font-size:11.29px;font-family:Arial;color:#000000;direction:ltr;letter-spacing:0px;line-height:120%;opacity:1&quot;&gt;N1&amp;nbsp;&lt;/font&gt;&lt;/p&gt;&lt;/div&gt;" style="verticalAlign=middle;align=right;overflow=width;vsdxID=13;fillColor=none;gradientColor=none;shape=stencil(nZBLDoAgDERP0z3SIyjew0SURgSD+Lu9kMZoXLhwN9O+tukAlrNpJg1SzDH4QW/URgNYgZTkjA4UkwJUgGXng+6DX1zLfmoymdXo17xh5zmRJ6Q42BWCfc2oJfdAr+Yv+AP9Cb7OJ3H/2JG1HNGz/84klThPVCc=);strokeColor=none;spacingTop=-3;spacingBottom=-3;spacingLeft=-2;spacingRight=-2;points=[];labelBackgroundColor=none;rounded=0;html=1;whiteSpace=wrap;" parent="nOXjQ-CjKXy307Vtb0PH-28" vertex="1">
          <mxGeometry width="63" height="12" as="geometry" />
        </mxCell>
        <mxCell id="nOXjQ-CjKXy307Vtb0PH-30" style="vsdxID=14;fillColor=none;gradientColor=none;strokeColor=none;points=[];labelBackgroundColor=none;rounded=0;html=1;whiteSpace=wrap;" parent="nOXjQ-CjKXy307Vtb0PH-28" vertex="1">
          <mxGeometry x="63" y="2" width="26" height="8" as="geometry" />
        </mxCell>
        <mxCell id="nOXjQ-CjKXy307Vtb0PH-31" style="vsdxID=17;fillColor=#000000;gradientColor=none;shape=stencil(nZBLDoAgDERP0z3SIyjew0SURgSD+Lu9kMZoXLhwN9O+tukAlrNpJg1SzDH4QW/URgNYgZTkjA4UkwJUgGXng+6DX1zLfmoymdXo17xh5zmRJ6Q42BWCfc2oJfdAr+Yv+AP9Cb7OJ3H/2JG1HNGz/84klThPVCc=);strokeColor=none;points=[];labelBackgroundColor=none;rounded=0;html=1;whiteSpace=wrap;" parent="nOXjQ-CjKXy307Vtb0PH-30" vertex="1">
          <mxGeometry x="14" width="8" height="8" as="geometry" />
        </mxCell>
        <mxCell id="nOXjQ-CjKXy307Vtb0PH-32" style="vsdxID=18;fillColor=#000000;gradientColor=none;shape=stencil(vVHLDsIgEPwajiQI6RfU+h8bu22JCGRB2/69kG1iazx58DazM/vIjjBtmiCi0CplCjecbZ8nYc5Ca+snJJsLEqYTph0C4Ujh4XvmEaqzont41gkL96naodXKrGF6YSfQtUi0OXXDVlqPfJNP6usotUhYbJIUMmQb/GGrAxpRljVycDBuc1hKM2LclX8/7H9nFfB+82Cd45T2+mcspcSRmu4F);strokeColor=none;points=[];labelBackgroundColor=none;rounded=0;html=1;whiteSpace=wrap;" parent="nOXjQ-CjKXy307Vtb0PH-30" vertex="1">
          <mxGeometry x="18" width="8" height="8" as="geometry" />
        </mxCell>
        <mxCell id="nOXjQ-CjKXy307Vtb0PH-33" value="" style="vsdxID=15;edgeStyle=none;startArrow=none;endArrow=none;startSize=5;endSize=5;strokeColor=#000000;spacingTop=0;spacingBottom=0;spacingLeft=0;spacingRight=0;verticalAlign=middle;html=1;labelBackgroundColor=none;rounded=0;" parent="nOXjQ-CjKXy307Vtb0PH-30" edge="1">
          <mxGeometry relative="1" as="geometry">
            <Array as="points" />
            <mxPoint y="4" as="sourcePoint" />
            <mxPoint x="14" y="4" as="targetPoint" />
          </mxGeometry>
        </mxCell>
        <mxCell id="nOXjQ-CjKXy307Vtb0PH-34" value="" style="vsdxID=16;edgeStyle=none;startArrow=none;endArrow=none;startSize=5;endSize=5;strokeColor=#000000;spacingTop=0;spacingBottom=0;spacingLeft=0;spacingRight=0;verticalAlign=middle;html=1;labelBackgroundColor=none;rounded=0;" parent="nOXjQ-CjKXy307Vtb0PH-30" edge="1">
          <mxGeometry relative="1" as="geometry">
            <Array as="points" />
            <mxPoint y="2" as="sourcePoint" />
            <mxPoint y="6" as="targetPoint" />
          </mxGeometry>
        </mxCell>
        <UserObject label="" Row_1="" id="nOXjQ-CjKXy307Vtb0PH-35">
          <mxCell style="vsdxID=5;fillColor=none;gradientColor=none;strokeColor=none;points=[];labelBackgroundColor=none;rounded=0;html=1;whiteSpace=wrap;" parent="1" vertex="1">
            <mxGeometry x="431" y="366.00000000000006" width="89" height="12" as="geometry" />
          </mxCell>
        </UserObject>
        <mxCell id="nOXjQ-CjKXy307Vtb0PH-36" value="&lt;div style=&quot;font-size: 1px&quot;&gt;&lt;p style=&quot;text-align:right;margin-left:0;margin-right:0;margin-top:0px;margin-bottom:0px;text-indent:0;vertical-align:middle;direction:ltr;&quot;&gt;&lt;font style=&quot;font-size:11.29px;font-family:Arial;color:#000000;direction:ltr;letter-spacing:0px;line-height:120%;opacity:1&quot;&gt;N2&amp;nbsp;&lt;/font&gt;&lt;/p&gt;&lt;/div&gt;" style="verticalAlign=middle;align=right;overflow=width;vsdxID=13;fillColor=none;gradientColor=none;shape=stencil(nZBLDoAgDERP0z3SIyjew0SURgSD+Lu9kMZoXLhwN9O+tukAlrNpJg1SzDH4QW/URgNYgZTkjA4UkwJUgGXng+6DX1zLfmoymdXo17xh5zmRJ6Q42BWCfc2oJfdAr+Yv+AP9Cb7OJ3H/2JG1HNGz/84klThPVCc=);strokeColor=none;spacingTop=-3;spacingBottom=-3;spacingLeft=-2;spacingRight=-2;points=[];labelBackgroundColor=none;rounded=0;html=1;whiteSpace=wrap;" parent="nOXjQ-CjKXy307Vtb0PH-35" vertex="1">
          <mxGeometry width="63" height="12" as="geometry" />
        </mxCell>
        <mxCell id="nOXjQ-CjKXy307Vtb0PH-37" style="vsdxID=14;fillColor=none;gradientColor=none;strokeColor=none;points=[];labelBackgroundColor=none;rounded=0;html=1;whiteSpace=wrap;" parent="nOXjQ-CjKXy307Vtb0PH-35" vertex="1">
          <mxGeometry x="63" y="2" width="26" height="8" as="geometry" />
        </mxCell>
        <mxCell id="nOXjQ-CjKXy307Vtb0PH-38" style="vsdxID=17;fillColor=#000000;gradientColor=none;shape=stencil(nZBLDoAgDERP0z3SIyjew0SURgSD+Lu9kMZoXLhwN9O+tukAlrNpJg1SzDH4QW/URgNYgZTkjA4UkwJUgGXng+6DX1zLfmoymdXo17xh5zmRJ6Q42BWCfc2oJfdAr+Yv+AP9Cb7OJ3H/2JG1HNGz/84klThPVCc=);strokeColor=none;points=[];labelBackgroundColor=none;rounded=0;html=1;whiteSpace=wrap;" parent="nOXjQ-CjKXy307Vtb0PH-37" vertex="1">
          <mxGeometry x="14" width="8" height="8" as="geometry" />
        </mxCell>
        <mxCell id="nOXjQ-CjKXy307Vtb0PH-39" style="vsdxID=18;fillColor=#000000;gradientColor=none;shape=stencil(vVHLDsIgEPwajiQI6RfU+h8bu22JCGRB2/69kG1iazx58DazM/vIjjBtmiCi0CplCjecbZ8nYc5Ca+snJJsLEqYTph0C4Ujh4XvmEaqzont41gkL96naodXKrGF6YSfQtUi0OXXDVlqPfJNP6usotUhYbJIUMmQb/GGrAxpRljVycDBuc1hKM2LclX8/7H9nFfB+82Cd45T2+mcspcSRmu4F);strokeColor=none;points=[];labelBackgroundColor=none;rounded=0;html=1;whiteSpace=wrap;" parent="nOXjQ-CjKXy307Vtb0PH-37" vertex="1">
          <mxGeometry x="18" width="8" height="8" as="geometry" />
        </mxCell>
        <mxCell id="nOXjQ-CjKXy307Vtb0PH-40" value="" style="vsdxID=15;edgeStyle=none;startArrow=none;endArrow=none;startSize=5;endSize=5;strokeColor=#000000;spacingTop=0;spacingBottom=0;spacingLeft=0;spacingRight=0;verticalAlign=middle;html=1;labelBackgroundColor=none;rounded=0;" parent="nOXjQ-CjKXy307Vtb0PH-37" edge="1">
          <mxGeometry relative="1" as="geometry">
            <Array as="points" />
            <mxPoint y="4" as="sourcePoint" />
            <mxPoint x="14" y="4" as="targetPoint" />
          </mxGeometry>
        </mxCell>
        <mxCell id="nOXjQ-CjKXy307Vtb0PH-41" value="" style="vsdxID=16;edgeStyle=none;startArrow=none;endArrow=none;startSize=5;endSize=5;strokeColor=#000000;spacingTop=0;spacingBottom=0;spacingLeft=0;spacingRight=0;verticalAlign=middle;html=1;labelBackgroundColor=none;rounded=0;" parent="nOXjQ-CjKXy307Vtb0PH-37" edge="1">
          <mxGeometry relative="1" as="geometry">
            <Array as="points" />
            <mxPoint y="2" as="sourcePoint" />
            <mxPoint y="6" as="targetPoint" />
          </mxGeometry>
        </mxCell>
        <mxCell id="nOXjQ-CjKXy307Vtb0PH-42" style="vsdxID=5;fillColor=none;gradientColor=none;strokeColor=none;flipV=1;points=[];labelBackgroundColor=none;rounded=0;html=1;whiteSpace=wrap;rotation=-180;" parent="1" vertex="1">
          <mxGeometry x="548" y="388" width="12" height="12" as="geometry" />
        </mxCell>
        <mxCell id="nOXjQ-CjKXy307Vtb0PH-43" style="vsdxID=6;rotation=-90;fillColor=#000000;gradientColor=none;shape=stencil(jZBLDoAgDERP0z3SIyjew0SURgSD+Lu9kMb4Wbmb6bw2bQHL2TSTBinmGPygN2qjAaxASnJGB4pJASrAsvNB98EvrmU/NZnMavRrnrBzn8gdUhzsCsG+ZtSSe6BX+At+o7/Bz8wk7sU7spbvfubfQ1OJn4TqBA==);strokeColor=#000000;flipV=1;points=[];labelBackgroundColor=none;rounded=0;html=1;whiteSpace=wrap;" parent="nOXjQ-CjKXy307Vtb0PH-42" vertex="1">
          <mxGeometry x="4" y="4" width="8" height="8" as="geometry" />
        </mxCell>
        <mxCell id="nOXjQ-CjKXy307Vtb0PH-44" value="" style="vsdxID=7;edgeStyle=none;startArrow=none;endArrow=none;startSize=5;endSize=5;strokeColor=#000000;spacingTop=0;spacingBottom=0;spacingLeft=0;spacingRight=0;verticalAlign=middle;html=1;labelBackgroundColor=none;rounded=0;" parent="nOXjQ-CjKXy307Vtb0PH-42" edge="1">
          <mxGeometry relative="1" as="geometry">
            <Array as="points" />
            <mxPoint y="12" as="sourcePoint" />
            <mxPoint as="targetPoint" />
          </mxGeometry>
        </mxCell>
        <UserObject label="&lt;div style=&quot;font-size: 1px&quot;&gt;&lt;font style=&quot;font-size:7.06px;font-family:Arial;color:#000000;direction:ltr;letter-spacing:0px;line-height:120%;opacity:1&quot;&gt;W1&lt;/font&gt;&lt;/div&gt;" Row_1="" id="nOXjQ-CjKXy307Vtb0PH-45">
          <mxCell style="verticalAlign=middle;align=center;overflow=width;vsdxID=5;fillColor=none;gradientColor=none;shape=stencil(nZBLDoAgDERP0z3SIyjew0SURgSD+Lu9kMZoXLhwN9O+tukAlrNpJg1SzDH4QW/URgNYgZTkjA4UkwJUgGXng+6DX1zLfmoymdXo17xh5zmRJ6Q42BWCfc2oJfdAr+Yv+AP9Cb7OJ3H/2JG1HNGz/84klThPVCc=);strokeColor=none;spacingTop=-3;spacingBottom=-3;spacingLeft=-3;spacingRight=-3;points=[];labelBackgroundColor=none;rounded=0;html=1;whiteSpace=wrap;" parent="1" vertex="1">
            <mxGeometry x="276" y="402" width="24" height="8" as="geometry" />
          </mxCell>
        </UserObject>
        <UserObject label="&lt;div style=&quot;font-size: 1px&quot;&gt;&lt;font style=&quot;font-size:7.06px;font-family:Arial;color:#000000;direction:ltr;letter-spacing:0px;line-height:120%;opacity:1&quot;&gt;W2&lt;/font&gt;&lt;/div&gt;" Row_1="" id="nOXjQ-CjKXy307Vtb0PH-46">
          <mxCell style="verticalAlign=middle;align=center;overflow=width;vsdxID=5;fillColor=none;gradientColor=none;shape=stencil(nZBLDoAgDERP0z3SIyjew0SURgSD+Lu9kMZoXLhwN9O+tukAlrNpJg1SzDH4QW/URgNYgZTkjA4UkwJUgGXng+6DX1zLfmoymdXo17xh5zmRJ6Q42BWCfc2oJfdAr+Yv+AP9Cb7OJ3H/2JG1HNGz/84klThPVCc=);strokeColor=none;spacingTop=-3;spacingBottom=-3;spacingLeft=-3;spacingRight=-3;points=[];labelBackgroundColor=none;rounded=0;html=1;whiteSpace=wrap;" parent="1" vertex="1">
            <mxGeometry x="543" y="402" width="24" height="8" as="geometry" />
          </mxCell>
        </UserObject>
        <mxCell id="nOXjQ-CjKXy307Vtb0PH-48" value="" style="group" parent="1" vertex="1" connectable="0">
          <mxGeometry x="576" y="387" width="90" height="12" as="geometry" />
        </mxCell>
        <mxCell id="nOXjQ-CjKXy307Vtb0PH-49" value="&lt;div style=&quot;font-size: 1px&quot;&gt;&lt;p style=&quot;margin: 0px; text-indent: 0px; vertical-align: middle; direction: ltr;&quot;&gt;&lt;font style=&quot;font-size:11.29px;font-family:Arial;color:#000000;direction:ltr;letter-spacing:0px;line-height:120%;opacity:1&quot;&gt;F&lt;/font&gt;&lt;/p&gt;&lt;/div&gt;" style="verticalAlign=middle;align=left;overflow=width;vsdxID=13;fillColor=none;gradientColor=none;shape=stencil(nZBLDoAgDERP0z3SIyjew0SURgSD+Lu9kMZoXLhwN9O+tukAlrNpJg1SzDH4QW/URgNYgZTkjA4UkwJUgGXng+6DX1zLfmoymdXo17xh5zmRJ6Q42BWCfc2oJfdAr+Yv+AP9Cb7OJ3H/2JG1HNGz/84klThPVCc=);strokeColor=none;spacingTop=-3;spacingBottom=-3;spacingLeft=-2;spacingRight=-2;points=[];labelBackgroundColor=none;rounded=0;html=1;whiteSpace=wrap;rotation=0;" parent="nOXjQ-CjKXy307Vtb0PH-48" vertex="1">
          <mxGeometry x="27" width="63" height="12" as="geometry" />
        </mxCell>
        <mxCell id="nOXjQ-CjKXy307Vtb0PH-50" style="vsdxID=5;fillColor=none;gradientColor=none;strokeColor=none;points=[];labelBackgroundColor=none;rounded=0;html=1;whiteSpace=wrap;rotation=-180;" parent="nOXjQ-CjKXy307Vtb0PH-48" vertex="1">
          <mxGeometry y="2" width="26" height="8" as="geometry" />
        </mxCell>
        <mxCell id="nOXjQ-CjKXy307Vtb0PH-51" style="vsdxID=15;fillColor=#000000;gradientColor=none;shape=stencil(nZBLDoAgDERP0z3SIyjew0SURgSD+Lu9kMZoXLhwN9O+tukAlrNpJg1SzDH4QW/URgNYgZTkjA4UkwJUgGXng+6DX1zLfmoymdXo17xh5zmRJ6Q42BWCfc2oJfdAr+Yv+AP9Cb7OJ3H/2JG1HNGz/84klThPVCc=);strokeColor=none;points=[];labelBackgroundColor=none;rounded=0;html=1;whiteSpace=wrap;rotation=-180;" parent="nOXjQ-CjKXy307Vtb0PH-50" vertex="1">
          <mxGeometry x="4" width="8" height="8" as="geometry" />
        </mxCell>
        <mxCell id="nOXjQ-CjKXy307Vtb0PH-52" style="vsdxID=16;fillColor=#000000;gradientColor=none;shape=stencil(vVHLDsIgEPwajiQI6RfU+h8bu22JCGRB2/69kG1iazx58DazM/vIjjBtmiCi0CplCjecbZ8nYc5Ca+snJJsLEqYTph0C4Ujh4XvmEaqzont41gkL96naodXKrGF6YSfQtUi0OXXDVlqPfJNP6usotUhYbJIUMmQb/GGrAxpRljVycDBuc1hKM2LclX8/7H9nFfB+82Cd45T2+mcspcSRmu4F);strokeColor=none;points=[];labelBackgroundColor=none;rounded=0;html=1;whiteSpace=wrap;rotation=-180;" parent="nOXjQ-CjKXy307Vtb0PH-50" vertex="1">
          <mxGeometry width="8" height="8" as="geometry" />
        </mxCell>
        <mxCell id="nOXjQ-CjKXy307Vtb0PH-53" style="vsdxID=17;fillColor=#000000;gradientColor=none;shape=stencil(vVHLDsIgEPwajiQI6RfU+h8bu22JCGRB2/69kG1iazx58DazM/vIjjBtmiCi0CplCjecbZ8nYc5Ca+snJJsLEqYTph0C4Ujh4XvmEaqzont41gkL96naodXKrGF6YSfQtUi0OXXDVlqPfJNP6usotUhYbJIUMmQb/GGrAxpRljVycDBuc1hKM2LclX8/7H9nFfB+82Cd45T2+mcspcSRmu4F);strokeColor=none;points=[];labelBackgroundColor=none;rounded=0;html=1;whiteSpace=wrap;rotation=-180;" parent="nOXjQ-CjKXy307Vtb0PH-50" vertex="1">
          <mxGeometry x="8" width="8" height="8" as="geometry" />
        </mxCell>
        <mxCell id="nOXjQ-CjKXy307Vtb0PH-54" value="" style="vsdxID=6;edgeStyle=none;startArrow=none;endArrow=none;startSize=5;endSize=5;strokeColor=#000000;spacingTop=0;spacingBottom=0;spacingLeft=0;spacingRight=0;verticalAlign=middle;html=1;labelBackgroundColor=none;rounded=0;" parent="nOXjQ-CjKXy307Vtb0PH-50" edge="1">
          <mxGeometry relative="1" as="geometry">
            <Array as="points" />
            <mxPoint x="26" y="4" as="sourcePoint" />
            <mxPoint x="12" y="4" as="targetPoint" />
          </mxGeometry>
        </mxCell>
        <mxCell id="nOXjQ-CjKXy307Vtb0PH-55" value="" style="vsdxID=14;edgeStyle=none;startArrow=none;endArrow=none;startSize=5;endSize=5;strokeColor=#000000;spacingTop=0;spacingBottom=0;spacingLeft=0;spacingRight=0;verticalAlign=middle;html=1;labelBackgroundColor=none;rounded=0;" parent="nOXjQ-CjKXy307Vtb0PH-50" edge="1">
          <mxGeometry relative="1" as="geometry">
            <Array as="points" />
            <mxPoint x="26" y="6" as="sourcePoint" />
            <mxPoint x="26" y="2" as="targetPoint" />
          </mxGeometry>
        </mxCell>
        <mxCell id="nOXjQ-CjKXy307Vtb0PH-56" style="vsdxID=5;edgeStyle=none;startArrow=none;endArrow=none;startSize=5;endSize=5;strokeWidth=2;strokeColor=#000000;spacingTop=0;spacingBottom=0;spacingLeft=0;spacingRight=0;verticalAlign=middle;html=1;labelBackgroundColor=none;rounded=0;" parent="1" edge="1">
          <mxGeometry y="-1118" relative="1" as="geometry">
            <mxPoint y="-1118" as="offset" />
            <Array as="points" />
            <mxPoint x="227" y="400" as="sourcePoint" />
            <mxPoint x="620" y="400" as="targetPoint" />
          </mxGeometry>
        </mxCell>
        <mxCell id="gRMdvRZm8O77-XCpUGQm-1" style="vsdxID=5;edgeStyle=none;startArrow=none;endArrow=none;startSize=5;endSize=5;strokeWidth=2;strokeColor=#000000;spacingTop=0;spacingBottom=0;spacingLeft=0;spacingRight=0;verticalAlign=middle;html=1;labelBackgroundColor=none;rounded=0;" parent="1" edge="1">
          <mxGeometry y="-1118" relative="1" as="geometry">
            <mxPoint y="-1118" as="offset" />
            <Array as="points" />
            <mxPoint x="227" y="380" as="sourcePoint" />
            <mxPoint x="307" y="380" as="targetPoint" />
          </mxGeometry>
        </mxCell>
        <mxCell id="gRMdvRZm8O77-XCpUGQm-2" style="vsdxID=5;fillColor=none;gradientColor=none;strokeColor=none;points=[];labelBackgroundColor=none;rounded=0;html=1;whiteSpace=wrap;" parent="1" vertex="1">
          <mxGeometry x="227" y="376" width="3" height="8" as="geometry" />
        </mxCell>
        <mxCell id="gRMdvRZm8O77-XCpUGQm-3" style="vsdxID=6;fillColor=#FFFFFF;gradientColor=none;shape=stencil(nZBJDoAgDEVP0z3SIyDew0QUooJBnG4vpDES4srd/+3rCChW3S4KOFuDd6M6TBc0YA2cG6uVNyEqQAkoeufV4N1mO/JLm8ikZrenDifVVYylGs4u8uQaQidjM/Qn+Ez4RMvxBRzFuzjdnOfKI2OIHoTyBg==);strokeColor=#000000;points=[];labelBackgroundColor=none;rounded=0;html=1;whiteSpace=wrap;" parent="gRMdvRZm8O77-XCpUGQm-2" vertex="1">
          <mxGeometry width="3" height="8" as="geometry" />
        </mxCell>
        <mxCell id="gRMdvRZm8O77-XCpUGQm-4" style="vsdxID=5;fillColor=none;gradientColor=none;strokeColor=none;points=[];labelBackgroundColor=none;rounded=0;html=1;whiteSpace=wrap;" parent="1" vertex="1">
          <mxGeometry x="288" y="380" width="12" height="12" as="geometry" />
        </mxCell>
        <mxCell id="gRMdvRZm8O77-XCpUGQm-5" style="vsdxID=6;rotation=270;fillColor=#000000;gradientColor=none;shape=stencil(jZBLDoAgDERP0z3SIyjew0SURgSD+Lu9kMb4Wbmb6bw2bQHL2TSTBinmGPygN2qjAaxASnJGB4pJASrAsvNB98EvrmU/NZnMavRrnrBzn8gdUhzsCsG+ZtSSe6BX+At+o7/Bz8wk7sU7spbvfubfQ1OJn4TqBA==);strokeColor=#000000;flipH=1;flipV=1;points=[];labelBackgroundColor=none;rounded=0;html=1;whiteSpace=wrap;" parent="gRMdvRZm8O77-XCpUGQm-4" vertex="1">
          <mxGeometry x="4" width="8" height="8" as="geometry" />
        </mxCell>
        <mxCell id="gRMdvRZm8O77-XCpUGQm-6" value="" style="vsdxID=7;edgeStyle=none;startArrow=none;endArrow=none;startSize=5;endSize=5;strokeColor=#000000;spacingTop=0;spacingBottom=0;spacingLeft=0;spacingRight=0;verticalAlign=middle;html=1;labelBackgroundColor=none;rounded=0;" parent="gRMdvRZm8O77-XCpUGQm-4" edge="1">
          <mxGeometry relative="1" as="geometry">
            <Array as="points" />
            <mxPoint as="sourcePoint" />
            <mxPoint y="12" as="targetPoint" />
          </mxGeometry>
        </mxCell>
        <mxCell id="gRMdvRZm8O77-XCpUGQm-7" style="vsdxID=5;edgeStyle=none;startArrow=none;endArrow=none;startSize=5;endSize=5;strokeWidth=2;strokeColor=#000000;spacingTop=0;spacingBottom=0;spacingLeft=0;spacingRight=0;verticalAlign=middle;html=1;labelBackgroundColor=none;rounded=0;" parent="1" edge="1">
          <mxGeometry y="-1118" relative="1" as="geometry">
            <mxPoint y="-1118" as="offset" />
            <Array as="points" />
            <mxPoint x="540" y="380" as="sourcePoint" />
            <mxPoint x="620" y="380" as="targetPoint" />
          </mxGeometry>
        </mxCell>
        <mxCell id="gRMdvRZm8O77-XCpUGQm-8" style="vsdxID=5;fillColor=none;gradientColor=none;strokeColor=none;points=[];labelBackgroundColor=none;rounded=0;html=1;whiteSpace=wrap;rotation=-180;" parent="1" vertex="1">
          <mxGeometry x="617.5" y="376" width="3" height="8" as="geometry" />
        </mxCell>
        <mxCell id="gRMdvRZm8O77-XCpUGQm-9" style="vsdxID=6;fillColor=#FFFFFF;gradientColor=none;shape=stencil(nZBJDoAgDEVP0z3SIyDew0QUooJBnG4vpDES4srd/+3rCChW3S4KOFuDd6M6TBc0YA2cG6uVNyEqQAkoeufV4N1mO/JLm8ikZrenDifVVYylGs4u8uQaQidjM/Qn+Ez4RMvxBRzFuzjdnOfKI2OIHoTyBg==);strokeColor=#000000;points=[];labelBackgroundColor=none;rounded=0;html=1;whiteSpace=wrap;rotation=-180;" parent="gRMdvRZm8O77-XCpUGQm-8" vertex="1">
          <mxGeometry width="3" height="8" as="geometry" />
        </mxCell>
        <mxCell id="gRMdvRZm8O77-XCpUGQm-11" style="vsdxID=5;fillColor=none;gradientColor=none;strokeColor=none;flipV=1;points=[];labelBackgroundColor=none;rounded=0;html=1;whiteSpace=wrap;" parent="1" vertex="1">
          <mxGeometry x="540" y="380" width="12" height="12" as="geometry" />
        </mxCell>
        <mxCell id="gRMdvRZm8O77-XCpUGQm-12" style="vsdxID=6;rotation=90;fillColor=#000000;gradientColor=none;shape=stencil(jZBLDoAgDERP0z3SIyjew0SURgSD+Lu9kMb4Wbmb6bw2bQHL2TSTBinmGPygN2qjAaxASnJGB4pJASrAsvNB98EvrmU/NZnMavRrnrBzn8gdUhzsCsG+ZtSSe6BX+At+o7/Bz8wk7sU7spbvfubfQ1OJn4TqBA==);strokeColor=#000000;flipV=1;points=[];labelBackgroundColor=none;rounded=0;html=1;whiteSpace=wrap;" parent="gRMdvRZm8O77-XCpUGQm-11" vertex="1">
          <mxGeometry width="8" height="8" as="geometry" />
        </mxCell>
        <mxCell id="gRMdvRZm8O77-XCpUGQm-13" value="" style="vsdxID=7;edgeStyle=none;startArrow=none;endArrow=none;startSize=5;endSize=5;strokeColor=#000000;spacingTop=0;spacingBottom=0;spacingLeft=0;spacingRight=0;verticalAlign=middle;html=1;labelBackgroundColor=none;rounded=0;" parent="gRMdvRZm8O77-XCpUGQm-11" edge="1">
          <mxGeometry relative="1" as="geometry">
            <Array as="points" />
            <mxPoint x="12" as="sourcePoint" />
            <mxPoint x="12" y="12" as="targetPoint" />
          </mxGeometry>
        </mxCell>
        <mxCell id="gRMdvRZm8O77-XCpUGQm-14" style="vsdxID=5;edgeStyle=none;startArrow=none;endArrow=none;startSize=5;endSize=5;strokeWidth=2;strokeColor=#FFFF00;spacingTop=0;spacingBottom=0;spacingLeft=0;spacingRight=0;verticalAlign=middle;html=1;labelBackgroundColor=none;rounded=0;" parent="1" edge="1">
          <mxGeometry y="-1118" relative="1" as="geometry">
            <mxPoint y="-1118" as="offset" />
            <Array as="points" />
            <mxPoint x="260" y="380" as="sourcePoint" />
            <mxPoint x="420" y="380" as="targetPoint" />
          </mxGeometry>
        </mxCell>
        <mxCell id="gRMdvRZm8O77-XCpUGQm-15" style="vsdxID=5;edgeStyle=none;startArrow=none;endArrow=none;startSize=5;endSize=5;strokeWidth=2;strokeColor=#00CC00;spacingTop=0;spacingBottom=0;spacingLeft=0;spacingRight=0;verticalAlign=middle;html=1;labelBackgroundColor=none;rounded=0;" parent="1" edge="1">
          <mxGeometry y="-1118" relative="1" as="geometry">
            <mxPoint y="-1118" as="offset" />
            <Array as="points" />
            <mxPoint x="227" y="400" as="sourcePoint" />
            <mxPoint x="420" y="400" as="targetPoint" />
          </mxGeometry>
        </mxCell>
        <UserObject label="&lt;div style=&quot;font-size: 1px&quot;&gt;&lt;font style=&quot;font-size:7.06px;font-family:Arial;color:#000000;direction:ltr;letter-spacing:0px;line-height:120%;opacity:1&quot;&gt;W3&lt;/font&gt;&lt;/div&gt;" Row_1="" id="sIedoAMz6BI7Nrj6NxET-1">
          <mxCell style="verticalAlign=middle;align=center;overflow=width;vsdxID=5;fillColor=none;gradientColor=none;shape=stencil(nZBLDoAgDERP0z3SIyjew0SURgSD+Lu9kMZoXLhwN9O+tukAlrNpJg1SzDH4QW/URgNYgZTkjA4UkwJUgGXng+6DX1zLfmoymdXo17xh5zmRJ6Q42BWCfc2oJfdAr+Yv+AP9Cb7OJ3H/2JG1HNGz/84klThPVCc=);strokeColor=none;spacingTop=-3;spacingBottom=-3;spacingLeft=-3;spacingRight=-3;points=[];labelBackgroundColor=none;rounded=0;html=1;whiteSpace=wrap;" vertex="1" parent="1">
            <mxGeometry x="288" y="368" width="24" height="10" as="geometry" />
          </mxCell>
        </UserObject>
        <UserObject label="&lt;div style=&quot;font-size: 1px&quot;&gt;&lt;font style=&quot;font-size:7.06px;font-family:Arial;color:#000000;direction:ltr;letter-spacing:0px;line-height:120%;opacity:1&quot;&gt;W4&lt;/font&gt;&lt;/div&gt;" Row_1="" id="sIedoAMz6BI7Nrj6NxET-2">
          <mxCell style="verticalAlign=middle;align=center;overflow=width;vsdxID=5;fillColor=none;gradientColor=none;shape=stencil(nZBLDoAgDERP0z3SIyjew0SURgSD+Lu9kMZoXLhwN9O+tukAlrNpJg1SzDH4QW/URgNYgZTkjA4UkwJUgGXng+6DX1zLfmoymdXo17xh5zmRJ6Q42BWCfc2oJfdAr+Yv+AP9Cb7OJ3H/2JG1HNGz/84klThPVCc=);strokeColor=none;spacingTop=-3;spacingBottom=-3;spacingLeft=-3;spacingRight=-3;points=[];labelBackgroundColor=none;rounded=0;html=1;whiteSpace=wrap;" vertex="1" parent="1">
            <mxGeometry x="530" y="370" width="24" height="8" as="geometry" />
          </mxCell>
        </UserObject>
      </root>
    </mxGraphModel>
  </diagram>
</mxfile>
